<?xml version="1.0" encoding="UTF-8"?>
<svg id="Layer_1" data-name="Layer 1" xmlns="http://www.w3.org/2000/svg" viewBox="0 0 722.49 88.24">
  <defs>
    <style>
      .cls-1 {
        fill: #323e48;
      }

      .cls-2 {
        fill: #e50046;
      }
    </style>
  </defs>
  <polygon class="cls-1" points="43.8 65.15 34.5 65.15 27.11 37.39 19.43 65.15 10.27 65.15 0 28.25 9.01 26.53 15.58 54.38 22.83 27.11 32.22 27.11 39.29 54.38 45.57 27.11 54.22 27.11 43.8 65.15"/>
  <polygon class="cls-1" points="69.21 65 69.21 27.11 93.88 27.11 93.88 34.12 77.86 34.12 77.86 42.04 90.35 42.04 91.38 48.98 77.86 48.98 77.86 57.92 94.34 57.92 94.34 65 69.21 65"/>
  <polygon class="cls-1" points="135.48 65 135.48 27.11 144.34 27.11 144.34 57.41 157.55 57.41 158.76 65 135.48 65"/>
  <rect class="cls-1" x="174.71" y="27.11" width="8.65" height="37.88"/>
  <path class="cls-1" d="M213.28,65.53c-4.97,0-9.84-1.18-13.83-2.81l1.31-7.29c3.71,1.76,8.88,3.25,12.73,3.25s6.19-1.49,6.19-4.07-1.55-3.48-6.28-5.03c-8.26-2.59-12.69-5.03-12.69-11.58,0-6.9,5.54-11.47,13.3-11.47,4.88,0,8.94,1.11,11.83,2.36l-1.28,7.39c-3.41-1.69-7.16-2.79-10.62-2.79-3.27,0-5.26,1.65-5.26,3.62,0,2.37,1.64,3.24,6.66,4.88,8.7,2.8,12.33,5.39,12.33,11.67,0,7.3-5.69,11.89-14.39,11.89"/>
  <polygon class="cls-1" points="260.25 34.65 260.25 65 251.3 65 251.3 34.65 240.07 34.65 240.07 27.11 271.01 27.11 272.13 34.65 260.25 34.65"/>
  <polygon class="cls-1" points="286.69 65 286.69 27.11 311.35 27.11 311.35 34.12 295.33 34.12 295.33 42.04 307.81 42.04 308.84 48.98 295.33 48.98 295.33 57.92 311.8 57.92 311.8 65 286.69 65"/>
  <polygon class="cls-1" points="352.72 65 336.18 40.06 336.18 65 328.28 65 328.28 27.11 336.7 27.11 352.35 50.76 352.35 27.11 360.27 27.11 360.27 65 352.72 65"/>
  <path class="cls-2" d="M406.58,26.43c3,0,5.69,0,6.94-.23,0,0,.87,0,.25.85-1.4,1.81-4.19,2.14-4.19,2.14-.85.22-2.45.34-4.38.42-.32,0-.32.22-.32.22-3.84,8.66-7.81,18.18-10.8,25.68,0,0-2.37,5.12,1.28,4.71,0,0,3.53.21,10.48-9.85,0,0,.31-.32.44,0,0,0,1.17,1.19-.21,3.96-1.51,3.1-5.79,6.52-5.79,6.52-6.95,6.2-12.1,5.78-12.4,5.67-2.57-.3-3.54-2.15-3.65-4.27-.32-2.88,1.38-6.85,1.38-6.85,2.99-8.46,8.35-20.1,8.35-20.1,0,0,1.07-2.47,2.24-5.46.13-.22-.07-.22-.07-.22h-5.05c-1.73,0-1.08-.95-1.08-.95,1.08-2.23,2.8-2.23,2.8-2.23h4.68c.34,0,.34-.34.34-.34,2.26-5.23,4.82-11.22,5.78-12.81.54-.99.85-1.51.85-1.51,0,0,.97-1.05,2.68-1.82,2.02-.75,3.75-1.08,5.88-.96,0,0,.86-.12.52.75,0,0-.83,1.72-1.91,4.4,0,0-2.25,5.01-5.13,11.95,0,0-.2.34.11.34"/>
  <path class="cls-2" d="M438.88,46.94s-6,21.08-24.28,19.16c0,0-14.33-.22-7.92-20.76,0-.22.33-.84.33-.84,0,0,5.97-20.43,24.29-19.16,0,0,14.12-.32,7.91,20.74-.23.45-.32.85-.32.85M429.68,45.35c6.42-17.87.23-17.01.23-17.01-7.4-.86-13.7,17.01-13.7,17.01,0,0-6.42,17.21.52,17.86,7.49.52,12.95-17.86,12.95-17.86"/>
  <path class="cls-2" d="M443.61,83.32c-.56-9.41,11.23-12.52,11.23-12.52,1.7-.22,1.07.97,1.07.97-4.06,3.53-5.14,8.34-5.14,8.34-1.5,5.56,3.74,4.8,3.74,4.8,6.22.21,10.27-7.69,10.27-7.69,4.37-7.59,10.16-22.68,10.16-22.68.21-.74-.52,0-.52,0-9.1,12.52-16.27,11.45-16.27,11.45-7.92-.64-1.61-14.23-1.61-14.23,0,0,7.7-18.94,9.52-22.03.54-.98.87-1.5.87-1.5,0,0,.63-1.19,2.67-1.81,2.06-.65,3.86-.98,5.99-.98,0,0,.86.13.43.98,0,0-.76,1.48-1.93,4.15,0,0-1.5,3.65-3.33,7.49,0,0-5.43,12.62-6.96,17.21,0,0-1.04,3.75,1.6,3.43,0,0,1.2.21,3.75-2.25,1.94-1.92,5.48-6.2,9.02-12.29,0,0,2.55-3.75,7.04-14.44.42-.98.86-1.5.86-1.5,0,0,.63-1.19,2.46-1.81,2.02-.76,3.86-1.08,5.99-.98,0,0,.96-.11.65.75,0,0-.86,1.94-2.04,4.5,0,0-7.27,16.99-8.55,19.89,0,0-8.98,22.8-13.06,27.6,0,0-6.52,9.62-18.59,10.04-8.57.22-9.3-4.91-9.3-4.91"/>
  <path class="cls-2" d="M523.48,46.94s-5.99,21.08-24.28,19.16c0,0-14.32-.22-7.91-20.76,0-.22.32-.84.32-.84,0,0,6-20.43,24.28-19.16,0,0,14.12-.32,7.91,20.74-.21.45-.32.85-.32.85M514.28,45.35c6.43-17.87.23-17.01.23-17.01-7.39-.86-13.69,17.01-13.69,17.01,0,0-6.41,17.21.54,17.86,7.48.52,12.93-17.86,12.93-17.86"/>
  <path class="cls-2" d="M560.92,54.76c-5.78,8.34-14.24,11.34-14.24,11.34-6.94,1.92-7.36-2.78-7.36-2.78-.44-1.71.22-4.06.96-6.1.54-1.18.75-1.82.75-1.82.21-.74-.43-.21-.43-.21-8.44,12.39-15.72,10.91-15.72,10.91-3.63-.32-4.27-3.42-3.84-6.73.21-2.36,2.23-7.61,2.23-7.61,0,0,7.71-18.93,9.41-22.03.55-.98.87-1.5.87-1.5,0,0,.98-1.08,2.67-1.72,2.15-.85,3.87-1.07,5.99-1.07,0,0,.86.13.55.99,0,0-.76,1.48-1.94,4.15,0,0-1.6,3.65-3.33,7.49,0,0-5.33,12.07-6.84,16.68,0,0-1.26,3.53,1.19,3.74,0,0,1.8.42,3.83-1.71,2.14-2.14,6.54-6.65,10.71-15.19,0,0,1.06-1.71,5.46-11.87.53-.98.95-1.5.95-1.5,0,0,.75-1.08,2.47-1.81,2.01-.77,3.84-1.09,5.98-.99,0,0,.96-.11.64.75,0,0-.86,1.93-2.04,4.49,0,0-9.39,22.24-10.79,25.35,0,0-2.01,4.18,1.16,4.18,0,0,3.43.55,10.59-9.84,0,0,.22-.33.44,0,1.19,2.25-.32,4.38-.32,4.38"/>
  <path class="cls-2" d="M574.94,36.47s9.72-12.4,16.46-11.99c0,0,1.93-.11,1.93,3.33-.22,8.33-6.63,12.93-6.63,12.93-2.86,2.35-3.97,2.04-3.97,2.04-.52,0-.41-.84-.41-.84,4.17-8.78,2.03-9.64,2.03-9.64-1.72-.85-5.44,3.54-8.55,7.4,0,0-4.09,5.76-5.69,8.85-2.67,5.13-5.11,11.13-5.11,11.13,0,0-1.29,2.99-2.57,4.5-2.68,2.99-8.04,2.56-8.04,2.56-1.28-.11-.75-1.18-.75-1.18,3.33-6.53,6.11-14,6.11-14,0,0,7.69-18.85,9.41-21.95.53-.96.85-1.48.85-1.48,0,0,.85-1.18,2.68-1.83,2.03-.73,3.53-1.07,5.68-.96,0,0,.87,0,.42.85,0,0-.73,1.62-1.93,4.19,0,0-.64,1.91-2.35,5.87,0,0-.1.75.44.22"/>
  <path class="cls-2" d="M629.08,55.72c-5.25,10.28-17.12,11.87-17.12,11.87-10.48,1.84-12.1-3.86-12.1-3.86-1.92-6.71,6.22-13.89,6.22-13.89,1.69-1.49,3.19-1.9,3.19-1.9.75,0,.44.83.44.83-1.83,3-2.37,6.95-2.37,6.95-.85,6.21,2.78,7.71,2.78,7.71,3.64,1.82,7.83-1.17,7.83-1.17,6.21-4.71,3.2-10.48,3.2-10.48-1.61-3.1-6.52-8.33-6.52-8.33-4.39-4.29-2.89-8.36-2.89-8.36,0,0,1.61-7.81,13.16-10.15,0,0,7.26-1.29,10.99.75,0,0,.44.32.23.97,0,0-1.19,3.95-3.66,8.76,0,0-.42.76-.83.65,0,0-.42-.11-.53-1.18,0,0-.34-6.2-3.52-7.05,0,0-3.65-1.08-6.77,2.02,0,0-2.67,3.32-.22,6.42,0,0,3.43,4.17,5.12,6.21,0,0,6.88,6.3,3.35,13.25"/>
  <path class="cls-2" d="M656.02,38.18s2.99,18.51,3.95,22.68c0,0,1.39,7.6,4.27,10.91,0,0,.56.52.56.85,0,.63-.97.54-.97.54-9.72-.65-12.4-14.67-12.4-14.67-.87-3.51-1.72-8.55-1.72-8.55-.31-1.83-.95-5.36-.95-5.36,0-.64-.76-.21-.76-.21-1.71,1.28-3.83,3.96-3.83,3.96-.55.75-1.39,2.35-1.39,2.35-.32,1.07-3.01,7.7-3.32,8.57,0,0-.96,2.99-2.16,4.38-2.35,3-8.65,2.66-8.65,2.66-1.27-.21-.64-1.16-.64-1.16,3.64-7.18,16.68-38.84,16.68-38.84,0,0,8.02-18.93,9.73-22.04.54-.95.86-1.48.86-1.48,0,0,.85-1.07,2.56-1.82,2.04-.76,3.87-.97,5.99-.97,0,0,.87,0,.42.76,0,0-.74,1.69-1.91,4.38,0,0-8.66,19.57-15.06,34.43,0,0-.34,1.18.5.54,0,0,.75-.41,14.45-12.95,0,0,1.7-2.02,4.93-2.67,0,0,4.7-1.07,6.83.22,0,0,.86.64-.65,1.17,0,0-7.48,2.25-16.78,11.23,0,0-.65.42-.55,1.07"/>
  <path class="cls-2" d="M668.52,66.74c-6.19.75-5.76-5.02-5.76-5.02-.11-1.94,1.71-6.32,1.71-6.32,2.69-6.42,9.64-23.1,11.44-26.3.54-.86.85-1.4.85-1.4,0,0,.87-1.17,2.59-1.81,2.02-.85,3.84-1.07,5.97-.96,0,0,.86-.11.42.65,0,0-.74,1.81-1.92,4.37,0,0-4.7,11.13-11,25.99,0,0-.75,1.93-.75,2.67-.13.86.2,1.72,1.16,1.83,0,0,1.18.42,3.43-1.07,2.22-1.51,4.6-4.17,7.57-8.67,0,0,.43-.64.67,0,0,0,1.38,2.24-1.19,5.67-8.13,10.27-15.2,10.37-15.2,10.37M681.58,14.02c.74-2.99,3.53-5.45,6.09-5.45s4.06,2.46,3.31,5.45c-.73,2.99-3.4,5.45-6.07,5.45s-4.07-2.46-3.33-5.45"/>
  <path class="cls-2" d="M721.57,54.86c-4.7,6.85-10.57,9.72-10.57,9.72-4.62,2.59-8.25,1.71-8.25,1.71-5.25-1.38-1.4-10.37-1.4-10.37,1.3-3.3,3.78-8.67,3.78-8.67,1.57-3.31,2.65-5.78,2.65-5.78,5.03-9.63,2.7-9.82,2.7-9.82-2.35-.87-7.61,5.11-10.83,9.3,0,0-3.83,5.02-5.55,8-2.88,5.47-5.13,10.92-5.13,10.92,0,0-1.29,2.9-2.57,4.37-2.67,3-8.04,2.7-8.04,2.7-1.26-.22-.73-1.19-.73-1.19,3.31-6.64,6.09-14.01,6.09-14.01,0,0,7.7-18.93,9.42-22.03.53-.98.85-1.5.85-1.5,0,0,.86-1.08,2.69-1.72,2.01-.85,3.51-1.08,5.65-1.08,0,0,.86.13.42.99,0,0-.76,1.48-1.91,4.15,0,0-1.5,3.65-3.34,7.49-.2.54.55.2.55.2,0,0,2.26-2.75,4.7-5.12,3.33-3.32,7.83-7.06,12.54-7.59,0,0,6.61-.97,4.8,5.87,0,0-1.93,6.01-4.72,11.99,0,0-3.52,7.69-5.44,12.7,0,0-1.8,3.76.97,4.09,0,0,1.26.31,4.05-1.94,1.73-1.39,3.86-3.96,6.64-8.02,0,0,.22-.43.55.11,1.07,2.35-.55,4.49-.55,4.49"/>
</svg>