<?xml version="1.0" encoding="UTF-8"?>
<svg id="Layer_1" data-name="Layer 1" xmlns="http://www.w3.org/2000/svg" viewBox="0 0 635.67 241.26">
  <defs>
    <style>
      .cls-1 {
        fill: #eb0045;
      }

      .cls-2 {
        fill: #323e48;
      }
    </style>
  </defs>
  <g>
    <path class="cls-2" d="M614.58,82.59c0-20.19-16-36.28-35.42-36.28s-35.45,16.09-35.45,36.28,16.04,36.27,35.45,36.32c5.05-.05,9.78-1.04,14.1-2.98,5.32-2.39,11.58,0,13.92,5.36,2.35,5.27,0,11.49-5.32,13.83-6.98,3.11-14.73,4.86-22.71,4.86-31.46-.09-56.5-25.86-56.55-57.4.04-31.5,25.19-57.31,56.55-57.31s56.41,25.82,56.5,57.31l-1.58,48.62c0,4.91-4.01,8.92-8.97,8.92s-8.96-4.01-8.96-8.92l-1.58-48.62Z"/>
    <path class="cls-2" d="M251.78,131.21l-1.58-54.97c0-28.12,22.39-51.23,50.42-51.28,6.94,0,13.66,1.49,19.69,4.06,5.37,2.34,7.84,8.52,5.5,13.83-2.25,5.36-8.47,7.84-13.79,5.54-3.52-1.49-7.3-2.3-11.4-2.3-16.09,0-29.42,13.33-29.42,30.14l-1.53,54.93c0,4.96-3.96,8.97-8.96,8.97s-8.87-4.01-8.92-8.92"/>
    <path class="cls-2" d="M511.26,76.46c-.09-28.12-22.44-51.14-50.46-51.18-16.36,0-30.73,7.88-39.92,20.01-9.19-12.12-23.61-20.01-39.97-20.01-27.99.04-50.42,23.07-50.51,51.18l1.58,54.7c0,4.96,4.1,8.97,9.01,8.97s8.97-4.01,8.97-8.97l1.53-54.7c0-16.76,13.38-30.05,29.43-30.15,16.12.09,29.38,13.38,29.42,30.15l1.58,54.75c0,4.91,4.01,8.92,8.97,8.92,3.06,0,5.76-1.58,7.43-3.92.94-1.44,1.49-3.2,1.49-5.05l1.62-54.7c0-16.76,13.3-30.05,29.38-30.15,16.08.09,29.42,13.38,29.42,30.15l1.57,54.75c0,4.91,3.97,8.92,8.93,8.92s8.96-4.01,8.96-8.92l1.58-54.75Z"/>
    <path class="cls-2" d="M0,82.64C0,51.14,25.14,25.28,56.5,25.28c8.02,0,15.78,1.67,22.71,4.78,5.32,2.39,7.7,8.65,5.32,13.88-2.39,5.36-8.56,7.75-13.88,5.4-4.32-1.94-9.05-3.02-14.15-3.02-19.43.09-35.42,16.13-35.42,36.32s15.99,36.23,35.46,36.23,35.41-16.09,35.41-36.27l2.17-73.62c0-4.96,3.96-8.97,8.83-8.97s9.06,4.01,9.06,8.97l1.04,73.62c-.04,31.54-25.14,57.31-56.5,57.4-31.36-.04-56.46-25.82-56.55-57.36"/>
    <path class="cls-2" d="M124.49,82.64c0-31.67,25.19-57.35,56.37-57.35,28.88,0,52.67,21.89,56.05,50.33l.13.67v1.17c-.13,5.05-2.34,8.2-4.1,10.14l-.18.18-.5.63c-2.92,2.93-7.2,4.32-11.44,4.32h-44.25c-5.63,0-10.14-4.64-10.14-10.32-.04-5.76,4.51-10.36,10.14-10.36h38.52c-4.46-14.87-18.11-25.73-34.24-25.73-19.69.09-35.64,16.27-35.69,36.32.05,20.05,16.04,36.23,35.73,36.28,10.91-.05,22.94-5.37,28.48-11.94,3.19-3.74,8.79-4.19,12.48-.95,3.69,3.2,4.1,8.92.9,12.61-8.75,10.41-24.7,21.36-41.86,21.36-31.17,0-56.41-25.63-56.41-57.36"/>
    <path class="cls-2" d="M594.61,82.64c0,8.7-6.89,15.73-15.45,15.73s-15.5-7.03-15.5-15.73,6.98-15.77,15.5-15.77,15.45,7.08,15.45,15.77"/>
    <path class="cls-2" d="M72,82.64c0,8.7-6.89,15.73-15.5,15.73s-15.46-7.03-15.46-15.73,6.89-15.77,15.46-15.77,15.5,7.08,15.5,15.77"/>
    <path class="cls-1" d="M476.34,82.64c0,8.7-6.98,15.73-15.5,15.73s-15.5-7.03-15.5-15.73,6.89-15.77,15.5-15.77,15.5,7.08,15.5,15.77"/>
    <path class="cls-1" d="M396.36,82.64c0,8.7-6.89,15.73-15.45,15.73s-15.45-7.03-15.45-15.73,6.89-15.77,15.45-15.77,15.45,7.08,15.45,15.77"/>
    <path class="cls-1" d="M316.44,82.64c0,8.7-6.89,15.73-15.41,15.73s-15.54-7.03-15.54-15.73,6.98-15.77,15.54-15.77,15.41,7.08,15.41,15.77"/>
  </g>
  <g>
    <path class="cls-2" d="M480.96,241.26c-.27-.02-.79-.16-1.62-.79-.89-.68-1.81-1.66-2.72-2.93-.89-1.23-1.49-2.63-1.79-4.14-.56-2.71-.86-5.85-.88-9.33-.02-3.51.18-7.33.61-11.36l.06-.6-.47-.38c-2.75-2.21-4.66-4.85-5.69-7.84-.27-.65-.23-1.14.11-1.68.29-.46.76-.92,1.41-1.36,1.11,2.19,2.28,4.08,3.46,5.65l1.62,2.14.36-2.66c.47-3.46,1.09-6.98,1.82-10.47.74-3.49,1.53-6.95,2.37-10.29.83-3.31,1.72-6.52,2.65-9.55.93-3.02,1.88-5.82,2.82-8.32l.74-1.97,1.25.52c.75.31,1.58.76,2.48,1.34.89.58,1.71,1.24,2.45,1.98.72.72,1.32,1.48,1.77,2.26.35.6.53,1.18.54,1.76-1.31,2.6-2.57,5.42-3.74,8.4-1.2,3.05-2.33,6.27-3.34,9.58-1.01,3.3-1.93,6.69-2.72,10.08-.79,3.39-1.49,6.81-2.06,10.18l-.18,1.04,1.03.23c.51.11,1.01.17,1.5.17h1.26c2.61,0,5.26-.46,7.88-1.36,2.6-.89,5.11-2.15,7.46-3.73,2.35-1.58,4.54-3.51,6.51-5.73,1.98-2.22,3.64-4.7,4.95-7.37,1.31-2.68,2.22-5.58,2.69-8.63.47-3.06.41-6.25-.19-9.48-.43-1.51-1.06-3.07-1.9-4.73-.88-1.73-2.16-3.34-3.82-4.79-1.65-1.45-3.77-2.68-6.31-3.66-2.54-.98-5.71-1.48-9.43-1.48h-.1c-1.18.11-2.33.31-3.43.62-1.12.3-2.25.74-3.37,1.3l-.75.38h0s-.96.49-1.28.64c-.01,0-.07.04-.08.05-.02.01-.06.05-.08.07-.34.3-1.42,1.05-1.42,1.05-2.27,1.68-4.43,3.75-6.42,6.16-1.98,2.39-3.78,5.01-5.36,7.79-1.58,2.77-2.98,5.67-4.17,8.63-1.19,2.96-2.13,5.88-2.79,8.69-.66,2.81-1.07,5.47-1.22,7.92-.14,2.37.03,4.45.52,6.18-.69-.14-1.53-.5-2.49-1.06-1.17-.69-2.33-1.65-3.45-2.86-1.06-1.15-1.74-2.38-2.03-3.67-.09-.41-.17-.83-.24-1.26-.06-.35-.07-.7-.03-1.04v-.02s0-.02,0-.02c.05-5.33.94-10.61,2.64-15.71,1.7-5.09,4.16-9.71,7.31-13.74,3.14-4.02,6.97-7.35,11.41-9.91,4.41-2.54,9.37-3.97,14.93-4.25,0,0,.05,0,.07-.01,0,0,.03,0,.03,0,.9-.18,1.83-.29,2.75-.34.96-.05,1.92-.07,2.86-.07,3.83,0,7.24.57,10.15,1.69,2.91,1.12,5.43,2.63,7.51,4.47,2.08,1.85,3.78,3.98,5.05,6.32,1.29,2.38,2.25,4.82,2.85,7.26.97,3.96,1.15,7.72.56,11.17-.6,3.47-1.76,6.7-3.46,9.59-1.71,2.91-3.87,5.56-6.41,7.88-2.56,2.33-5.36,4.32-8.31,5.93-2.96,1.61-6.03,2.87-9.13,3.76-3.08.88-6.01,1.32-8.73,1.32-1.55-.04-3.15-.3-4.73-.75l-1.23-.35-.18,1.27c-.63,4.53-1.01,8.85-1.13,12.82-.12,4,.01,7.58.4,10.65.06.38.06.61.04.74ZM464.09,211.99"/>
    <path class="cls-2" d="M536.14,230.57c-3.45,0-6.37-1-8.67-2.97-2.34-2-4-4.79-4.94-8.3-.87-3.11-1.11-6.18-.73-9.14.39-3,1.35-6.32,2.84-9.86.49-1.1,1.23-2.32,2.2-3.61.97-1.29,2.14-2.5,3.48-3.59,1.33-1.08,2.82-1.97,4.44-2.64,1.48-.62,3.06-.93,4.69-.93h.33c1.73.05,3.22.61,4.57,1.73,1.35,1.12,2.22,2.6,2.65,4.53.39,1.71.27,3.55-.33,5.45h-.02c-1.1,4.11-2.97,7.59-5.56,10.31-2.6,2.74-5.8,4.8-9.5,6.13l-.99.35.3,1.01c.41,1.39,1.04,2.73,1.87,3.97.93,1.4,2.16,2.26,3.66,2.56v-.04c.42.08.84.13,1.27.13.77,0,1.58-.14,2.39-.41,1.28-.43,2.57-1.19,3.82-2.26,1.21-1.04,2.42-2.4,3.57-4.06,1.15-1.65,2.18-3.61,3.07-5.84.45-1.2.86-2.42,1.22-3.66.35-1.2.67-2.33.95-3.41.12-.23.25-.28.44-.29h.14c.37,0,.72.1,1.08.31.43.26.77.62,1.04,1.1.21.39.24.81.09,1.34l-.72,2.61c-.65,2.08-1.54,4.46-2.65,7.02-1.09,2.52-2.53,5-4.3,7.37-.99,1.2-2.07,2.17-3.18,2.85-1.14.69-2.26,1.21-3.32,1.55-1.06.33-2.06.53-2.95.6-.95.07-1.71.1-2.26.1ZM541.96,194.44c-.23,0-.46.04-.7.12-1.67.35-3.26,1.23-4.58,2.58-1.25,1.27-2.33,2.79-3.22,4.51-.87,1.69-1.58,3.52-2.1,5.44-.52,1.9-.86,3.72-1.01,5.41l-.17,1.96,1.77-.87c2.96-1.45,5.5-3.45,7.56-5.94,2.03-2.45,3.44-5.4,4.21-8.78h0c.2-.53.28-1.07.25-1.61-.03-.43-.07-.8-.12-1.12l-.03-.13c-.41-1.43-1.44-1.59-1.86-1.59Z"/>
    <path class="cls-2" d="M560.06,230.49c-1.82-.09-3.24-.82-4.33-2.23-1.2-1.55-2.1-3.5-2.68-5.79-.19-.55-.31-1.04-.37-1.55-.07-.55-.1-1.05-.1-1.49-.24-2.45-.31-4.78-.22-7.04.1-2.29.29-4.59.57-6.82.28-2.24.65-4.49,1.1-6.68.46-2.23.92-4.44,1.4-6.64l1.37-6.04c.34-1.87.68-3.73,1.02-5.63.34-1.9.63-3.79.87-5.63.24-1.84.44-3.64.58-5.34.12-1.41.19-2.74.21-3.98.33,0,.75.09,1.24.25,1.07.37,2.17.96,3.28,1.76,1.11.8,2.09,1.73,2.91,2.77.73.92,1.09,1.79,1.09,2.59-.04.61-.18,1.61-.41,2.9-.24,1.33-.54,2.83-.89,4.5-.36,1.68-.74,3.41-1.15,5.21-.41,1.8-.78,3.5-1.12,5.09l-.21.92c-.23.89-.54,2.15-.9,3.75-.36,1.59-.74,3.37-1.12,5.32-.39,1.95-.77,3.99-1.16,6.14-.39,2.14-.7,4.24-.95,6.25-.24,2.02-.39,3.9-.44,5.61-.05,1.66-.13,2.63.09,3.79.08.41.22.72.27.91,0,0,.26.53.41.67.14.14.51.34.7.38.18.04.54.04.72,0,.05-.01.15-.06.2-.08,1.35-.58,2.58-1.44,3.6-2.65.97-1.15,1.81-2.46,2.52-3.9.69-1.41,1.31-2.93,1.85-4.52.53-1.56,1.03-3.09,1.52-4.59l.47-1.45h-.06c.06-.14.11-.28.17-.42.39.12.79.3,1.2.54.49.29.93.63,1.32,1.01.14.14.22.24.26.31l-.99,2.99c-.81,2.72-1.8,5.48-2.96,8.23-1.13,2.7-2.52,5.1-4.13,7.12-.26.35-.61.73-1.05,1.15-.41.4-.92.77-1.49,1.11-.58.34-1.23.64-1.95.87-.67.22-1.43.34-2.25.34Z"/>
    <path class="cls-2" d="M579.42,230.49c-1.82-.09-3.24-.82-4.33-2.23-1.2-1.55-2.1-3.5-2.68-5.79-.19-.55-.31-1.04-.37-1.55-.07-.55-.1-1.05-.1-1.49-.24-2.45-.31-4.78-.22-7.04.1-2.29.29-4.59.57-6.82.28-2.24.65-4.49,1.1-6.68.46-2.23.92-4.44,1.4-6.64l1.37-6.04c.34-1.87.68-3.73,1.02-5.63.34-1.9.63-3.79.87-5.63.24-1.84.44-3.64.58-5.34.12-1.41.19-2.74.21-3.98.33,0,.75.09,1.24.25,1.07.37,2.17.96,3.28,1.76,1.11.8,2.09,1.73,2.91,2.77.73.92,1.09,1.79,1.09,2.59-.04.61-.18,1.61-.41,2.9-.24,1.33-.54,2.83-.89,4.5-.36,1.68-.74,3.41-1.15,5.21-.41,1.8-.78,3.5-1.12,5.09l-.21.92c-.23.89-.54,2.15-.9,3.75-.36,1.59-.74,3.37-1.12,5.32-.39,1.95-.77,3.99-1.16,6.14-.39,2.14-.7,4.24-.95,6.25-.24,2.02-.39,3.9-.44,5.61-.05,1.66-.13,2.63.09,3.79.08.41.22.72.27.91,0,0,.26.53.41.67.14.14.51.34.7.38.18.04.54.04.72,0,.05-.01.15-.06.2-.08,1.35-.58,2.58-1.44,3.6-2.65.97-1.15,1.81-2.46,2.52-3.9.69-1.41,1.31-2.93,1.85-4.52.53-1.56,1.03-3.09,1.52-4.59l.47-1.45h-.06c.06-.14.11-.28.17-.42.39.12.79.3,1.2.54.49.29.93.63,1.32,1.01.14.14.22.24.26.31l-.99,2.99c-.81,2.72-1.8,5.48-2.96,8.23-1.13,2.7-2.52,5.1-4.13,7.12-.26.35-.61.73-1.05,1.15-.41.4-.92.77-1.49,1.11-.58.34-1.23.64-1.95.87-.67.22-1.43.34-2.25.34Z"/>
    <path class="cls-2" d="M616.09,200.66c-.14-.1-.2-.2-.23-.29-.05-.16-.12-.34-.19-.54-.06-.15-.1-.3-.14-.45-.17-.57-.36-1.1-.59-1.67-.25-.61-.57-1.18-.96-1.71-.41-.56-.89-1.02-1.43-1.38-.59-.39-1.3-.62-2.11-.69h-.27c-1.99,0-3.77.74-5.27,2.22-1.43,1.41-2.66,3.2-3.65,5.33-.97,2.08-1.71,4.34-2.2,6.72-.49,2.36-.77,4.53-.81,6.46-.05.53-.04,1.24.04,2.11.08.87.25,1.74.51,2.57.25,1.19.77,2.27,1.52,3.13.43.5,1.22,1.09,2.55,1.09h0c.49,0,1.03-.08,1.61-.24.87-.27,1.72-.93,2.61-2.02.78-.96,1.55-2.11,2.3-3.43.73-1.28,1.42-2.64,2.06-4.04.64-1.4,1.16-2.68,1.55-3.8l.04-.12v-.13c.16-1.45.26-2.88.31-4.24.05-1.4-.03-2.62-.22-3.65.56.13,1.17.35,1.81.66.88.41,2.1,1.16,2.9,1.71.77.53,1.47,1.12,2.1,1.76.6.63,1.09,1.27,1.45,1.9.28.5.44.97.46,1.41-.09.32-.16.68-.23,1.06-.08.43-.14.88-.19,1.33-.14.87-.27,1.87-.4,2.95-.12,1.07-.22,2.12-.29,3.14-.07,1.03-.11,2.01-.11,2.92,0,.81-.21,1.48-.04,2.09.07.25.19.57.32.75,0,0,.26.5.5.65.25.15.51.18.69.19.16,0,.64-.02.64-.02,1.37-.55,2.58-1.46,3.61-2.7.96-1.17,1.82-2.51,2.55-3.99.72-1.46,1.35-3.03,1.89-4.68.52-1.58,1.02-3.11,1.49-4.57.21-.43.36-.81.44-1.16.02-.09.05-.18.07-.27.43.1.9.29,1.39.55.52.28.98.62,1.36,1,.08.08.13.14.16.18l-.95,2.92v.07c-.88,2.73-1.87,5.47-2.94,8.15-1.06,2.64-2.49,5.04-4.28,7.14-.29.39-.63.77-1.05,1.19-.4.4-.89.79-1.44,1.15-.54.35-1.17.65-1.87.89-.55.18-1.19.28-1.89.28-.13,0-.27,0-.4,0-2.12-.17-3.82-.87-5.15-2.14-1.36-1.3-2.34-2.95-2.9-4.9l-.69-2.4-1.32,2.12c-1.19,1.92-2.58,3.59-4.15,4.97-1.45,1.28-3,1.93-4.73,1.99-1.67-.18-3.16-.65-4.41-1.39-1.31-.77-2.42-1.7-3.32-2.75-.92-1.07-1.67-2.24-2.25-3.46-.59-1.25-1.03-2.43-1.29-3.5-.27-1.35-.33-2.01-.33-2.32-.19-1.81-.18-3.7.03-5.72.21-2.02.64-4.08,1.29-6.11.65-2.04,1.49-4.03,2.51-5.93,1-1.87,2.2-3.56,3.57-5.02,1.35-1.44,2.86-2.6,4.49-3.44,1.58-.83,3.36-1.24,5.28-1.24.56,0,1.14.04,1.7.13.58.09,1.22.23,1.9.41,1.1.33,2.1.87,2.94,1.6.87.76,1.61,1.66,2.22,2.68.63,1.06,1.15,2.2,1.56,3.39.37,1.1.67,2.2.9,3.29-.1.04-.21.07-.34.09-.31.06-.68.09-1.09.09-.34,0-.83-.01-1.16-.25Z"/>
  </g>
</svg>