<?xml version="1.0" encoding="UTF-8"?>
<svg xmlns="http://www.w3.org/2000/svg" xmlns:xlink="http://www.w3.org/1999/xlink" width="814.28pt" height="633.34pt" viewBox="0 0 814.28 633.34" version="1.1">
<defs>
<clipPath id="clip1">
  <path d="M 0 0 L 814.28125 0 L 814.28125 633.339844 L 0 633.339844 Z M 0 0 "/>
</clipPath>
</defs>
<g id="surface1">
<path style=" stroke:none;fill-rule:evenodd;fill:rgb(89.7995%,67.098999%,21.998596%);fill-opacity:1;" d="M 597.054688 261.101563 C 589.449219 257.628906 586.054688 251.441406 587.003906 243.808594 C 588.074219 235.203125 587.945313 226.566406 587.011719 217.917969 C 586.140625 209.800781 585.054688 201.773438 582.695313 193.90625 C 577.023438 175 568.472656 157.496094 555.097656 143.003906 C 543.710938 130.667969 531.164063 119.277344 515.15625 112.890625 C 504.78125 108.746094 493.972656 106.144531 482.890625 104.546875 C 466.316406 102.15625 450.414063 105.351563 434.730469 110.109375 C 427.894531 112.183594 421.460938 115.316406 415.09375 118.640625 C 408.660156 122.003906 403.058594 126.414063 397.761719 131.167969 C 389.207031 138.84375 381.285156 147.179688 375.085938 156.949219 C 370.71875 163.832031 366.449219 170.8125 364.105469 178.707031 C 363.269531 181.515625 361.726563 182.632813 358.796875 182.941406 C 355.253906 183.316406 351.941406 182.445313 348.21875 182.515625 C 348.496094 177.378906 351.207031 173.636719 352.722656 169.511719 C 355.960938 160.695313 360.707031 152.65625 366.371094 145.226563 C 373.527344 135.84375 380.898438 126.644531 390.359375 119.335938 C 396.554688 114.550781 402.5625 109.582031 409.5625 105.9375 C 425.175781 97.816406 441.222656 91.546875 459.117188 90.277344 C 476.113281 89.074219 492.679688 90.664063 508.886719 95.519531 C 521.90625 99.417969 533.53125 106.214844 544.636719 114.023438 C 561.378906 125.800781 573.324219 141.734375 583.390625 159.074219 C 592.5 174.765625 597.839844 192.054688 600.175781 209.996094 C 602.085938 224.679688 601.660156 239.515625 598.929688 254.164063 C 598.535156 256.269531 599.058594 258.542969 597.808594 260.480469 C 597.640625 260.742188 597.308594 260.898438 597.054688 261.101563 "/>
<path style=" stroke:none;fill-rule:evenodd;fill:rgb(17.999268%,18.399048%,41.999817%);fill-opacity:1;" d="M 509.960938 258.296875 C 508.769531 260.058594 508.894531 262.09375 508.890625 264.0625 C 508.8125 295.035156 508.761719 326.011719 508.699219 356.988281 C 508.695313 358.816406 508.746094 360.640625 508.253906 362.445313 C 507.191406 366.308594 505.0625 368.25 501.773438 368.207031 C 497.6875 368.152344 494.558594 365.789063 493.796875 361.996094 C 493.507813 360.542969 493.480469 359.015625 493.488281 357.523438 C 493.671875 324.871094 493.863281 292.21875 494.074219 259.566406 C 494.125 252.078125 494.324219 244.59375 494.28125 237.109375 C 494.261719 233.523438 495.578125 231.0625 498.910156 229.617188 C 502.328125 228.132813 505.054688 229.179688 507.480469 231.664063 C 513.644531 237.976563 519.265625 244.785156 525.445313 251.09375 C 531.730469 257.507813 537.578125 264.351563 543.628906 271 C 556.84375 285.523438 570.054688 300.054688 583.289063 314.558594 C 595.070313 327.472656 606.890625 340.347656 618.683594 353.25 C 620.941406 355.722656 623.117188 358.179688 622.925781 361.941406 C 622.78125 364.738281 622.4375 367.277344 619.652344 368.707031 C 616.695313 370.230469 613.628906 369.84375 610.914063 367.296875 C 608.246094 364.789063 605.730469 362.113281 603.234375 359.433594 C 595.648438 351.261719 588.050781 343.089844 580.546875 334.839844 C 570.585938 323.882813 560.730469 312.824219 550.78125 301.855469 C 544.074219 294.460938 537.261719 287.15625 530.539063 279.773438 C 524.714844 273.378906 518.964844 266.914063 513.144531 260.519531 C 512.285156 259.574219 511.582031 258.300781 509.960938 258.296875 "/>
<path style=" stroke:none;fill-rule:evenodd;fill:rgb(17.999268%,18.399048%,41.999817%);fill-opacity:1;" d="M 391.894531 271.503906 C 393.296875 277.8125 397.1875 282.933594 400.765625 288.066406 C 410.933594 302.648438 424.628906 312.921875 440.9375 319.839844 C 450.144531 323.742188 459.910156 324.734375 469.703125 325.574219 C 472.707031 325.835938 475.3125 326.589844 476.453125 329.742188 C 477.757813 333.332031 476.71875 337.558594 474.085938 339.832031 C 472.617188 341.097656 470.953125 341.742188 469.035156 341.550781 C 456.242188 340.300781 443.492188 338.675781 431.722656 333.105469 C 415.226563 325.296875 401 314.5 389.933594 299.855469 C 383.480469 291.3125 378.972656 281.652344 374.734375 271.886719 C 373.953125 270.085938 373.546875 268.074219 373.675781 266.027344 C 373.878906 262.789063 375.039063 260.21875 378.355469 259.070313 C 379.613281 258.636719 380.828125 258.085938 382.082031 257.628906 C 396.613281 252.335938 401.277344 233.917969 390.691406 221.230469 C 386.96875 216.769531 381.984375 214.738281 376.136719 214.710938 C 365.976563 214.664063 355.816406 214.484375 345.65625 214.417969 C 342.367188 214.394531 339.75 213.339844 338.453125 210.121094 C 337.167969 206.921875 337.609375 203.921875 339.816406 201.226563 C 341.320313 199.390625 343.425781 198.777344 345.617188 198.769531 C 357.277344 198.714844 368.972656 198.238281 380.59375 198.953125 C 388.738281 199.457031 396 203.074219 401.144531 209.921875 C 402.441406 211.652344 403.648438 213.457031 405.003906 215.136719 C 414.613281 227.035156 412.054688 250.449219 403.582031 260.671875 C 400.871094 263.941406 397.328125 266.132813 394.21875 268.878906 C 393.480469 269.53125 392.519531 269.949219 391.894531 271.503906 "/>
<path style=" stroke:none;fill-rule:evenodd;fill:rgb(89.7995%,67.098999%,21.998596%);fill-opacity:1;" d="M 571.332031 234.640625 C 564.835938 228.144531 558.148438 223.304688 557.230469 213.289063 C 555.652344 196.125 547.9375 181.246094 537.289063 167.75 C 523.679688 150.492188 506.027344 140.195313 484.613281 136.042969 C 474.863281 134.152344 465.199219 134.5 455.386719 136.242188 C 442.644531 138.507813 431.003906 143.066406 420.765625 150.886719 C 413.488281 156.441406 406.992188 162.855469 401.570313 170.347656 C 398.734375 174.265625 395.992188 178.203125 393.675781 182.4375 C 392.734375 184.152344 391.304688 184.664063 389.464844 184.238281 C 386.402344 183.53125 383.339844 182.820313 380.5 182.160156 C 379.414063 180.761719 380.082031 179.683594 380.582031 178.675781 C 385.632813 168.492188 391.640625 159.117188 400.066406 151.179688 C 405.398438 146.15625 410.398438 140.878906 416.601563 136.882813 C 427.777344 129.675781 439.703125 124.039063 452.851563 121.957031 C 467.5625 119.628906 482.273438 119.8125 496.90625 123.753906 C 512.941406 128.070313 526.546875 136.300781 538.328125 147.710938 C 552.480469 161.40625 562.71875 177.632813 568.019531 196.65625 C 570.113281 204.160156 571.316406 211.9375 571.675781 219.789063 C 571.773438 221.945313 572.035156 224.097656 572.214844 226.25 C 572.410156 228.707031 572.851563 231.183594 571.332031 234.640625 "/>
<path style=" stroke:none;fill-rule:evenodd;fill:rgb(17.999268%,18.399048%,41.999817%);fill-opacity:1;" d="M 355.054688 245.699219 C 354.785156 250.777344 356.109375 255.636719 357.277344 260.40625 C 359.847656 270.921875 363.035156 281.226563 368.3125 290.828125 C 375.335938 303.609375 383.671875 315.300781 393.9375 325.714844 C 403.144531 335.054688 414.425781 340.855469 426.027344 346.410156 C 436.820313 351.574219 448.015625 355.003906 459.929688 356.058594 C 463.574219 356.378906 467.234375 356.519531 470.878906 356.835938 C 473.683594 357.082031 476.238281 357.871094 476.671875 361.226563 C 477.152344 364.949219 477.171875 368.609375 473.871094 371.289063 C 473.085938 371.929688 472.117188 372.214844 471.066406 372.140625 C 459.792969 371.332031 448.433594 371.234375 437.476563 367.867188 C 419.3125 362.285156 402.402344 354.390625 388.027344 341.648438 C 364.707031 320.976563 350.191406 295.125 342.945313 265.019531 C 340.804688 256.113281 339.320313 247.097656 339.335938 237.867188 C 339.347656 231.183594 341.160156 228.875 347.660156 228.8125 C 356.652344 228.726563 365.648438 228.703125 374.632813 228.960938 C 381.277344 229.148438 384.15625 233.898438 381.964844 240.234375 C 380.796875 243.605469 378.273438 244.828125 375.042969 244.867188 C 370.046875 244.929688 365.050781 244.828125 360.050781 244.777344 C 358.574219 244.761719 357.066406 244.433594 355.054688 245.699219 "/>
<path style=" stroke:none;fill-rule:evenodd;fill:rgb(17.999268%,18.399048%,41.999817%);fill-opacity:1;" d="M 542.390625 229.414063 C 544.683594 229.128906 546.257813 230.660156 547.746094 232.257813 C 552.167969 237.003906 556.574219 241.769531 560.949219 246.558594 C 571.496094 258.101563 581.988281 269.691406 592.5625 281.210938 C 607.296875 297.265625 622.078125 313.269531 636.84375 329.300781 C 644.617188 337.742188 652.371094 346.199219 660.160156 354.628906 C 662.128906 356.757813 663.816406 358.964844 663.566406 362.097656 C 663.328125 365.058594 662.554688 367.71875 659.550781 369.027344 C 656.496094 370.363281 653.597656 369.777344 651.160156 367.683594 C 649.273438 366.066406 647.652344 364.132813 645.972656 362.285156 C 636.570313 351.953125 627.195313 341.59375 617.785156 331.269531 C 604.449219 316.644531 591.117188 302.019531 577.734375 287.441406 C 567.496094 276.292969 557.15625 265.242188 546.921875 254.09375 C 543.4375 250.296875 540.078125 246.382813 536.777344 242.425781 C 534.601563 239.820313 533.800781 236.726563 535.359375 233.589844 C 536.691406 230.910156 539.007813 229.308594 542.390625 229.414063 "/>
<path style=" stroke:none;fill-rule:evenodd;fill:rgb(89.7995%,67.098999%,21.998596%);fill-opacity:1;" d="M 414.699219 202.460938 C 411.796875 199.4375 408.75 196.265625 405.738281 193.128906 C 407.175781 188.246094 409.738281 184.300781 412.621094 180.691406 C 424.3125 166.0625 438.855469 155.0625 457.558594 152.183594 C 476.230469 149.308594 494.371094 151.933594 510.355469 163.621094 C 515.644531 167.488281 520.539063 171.679688 524.929688 176.449219 C 533.492188 185.75 537.96875 197.164063 541.242188 209.136719 C 541.863281 211.414063 541.191406 213.128906 538.640625 213.585938 C 535.992188 214.0625 533.613281 215.234375 531.347656 216.367188 C 528.808594 215.5625 528.695313 213.328125 528.089844 211.523438 C 525.261719 203.097656 521.429688 195.179688 515.945313 188.171875 C 506.59375 176.226563 494.109375 169.449219 479.371094 166.613281 C 466.375 164.113281 454.167969 166.757813 442.785156 173.070313 C 435.164063 177.296875 428.585938 182.886719 423.703125 190.300781 C 421.792969 193.199219 419.449219 195.789063 418.128906 199.09375 C 417.601563 200.402344 416.777344 201.800781 414.699219 202.460938 "/>
<path style=" stroke:none;fill-rule:evenodd;fill:rgb(17.999268%,18.399048%,41.999817%);fill-opacity:1;" d="M 462.046875 292.945313 C 462.988281 291.074219 462.742188 289.378906 462.765625 287.734375 C 462.960938 272.414063 463.128906 257.09375 463.304688 241.769531 C 463.335938 239.273438 463.292969 236.769531 463.429688 234.277344 C 463.6875 229.507813 466.5625 226.558594 470.808594 226.570313 C 475.097656 226.589844 477.59375 229.417969 477.738281 234.589844 C 477.820313 237.585938 477.761719 240.585938 477.75 243.585938 C 477.683594 262.074219 477.613281 280.570313 477.53125 299.0625 C 477.527344 300.558594 477.578125 302.078125 477.363281 303.550781 C 476.636719 308.457031 474.300781 310.601563 469.25 310.414063 C 456.589844 309.9375 444.546875 307.222656 433.832031 300 C 426.078125 294.777344 418.449219 289.4375 413.238281 281.40625 C 412.058594 279.585938 410.769531 277.855469 411.105469 275.464844 C 411.515625 272.546875 412.199219 269.871094 415.367188 268.699219 C 418.433594 267.566406 421.429688 268.339844 423.894531 271 C 428.996094 276.511719 434.414063 281.644531 440.671875 285.863281 C 445.421875 289.066406 450.597656 291.277344 456.066406 292.855469 C 457.976563 293.402344 459.894531 294.074219 462.046875 292.945313 "/>
<path style=" stroke:none;fill-rule:evenodd;fill:rgb(17.999268%,18.399048%,41.999817%);fill-opacity:1;" d="M 538.109375 332.664063 C 537.050781 335.769531 537.308594 338.578125 537.269531 341.363281 C 537.179688 348.171875 537.152344 354.980469 536.863281 361.777344 C 536.6875 365.933594 534.558594 368.046875 530.820313 368.441406 C 527.253906 368.820313 523.8125 366.59375 522.894531 363.007813 C 522.445313 361.265625 522.421875 359.386719 522.421875 357.566406 C 522.421875 348.085938 522.492188 338.601563 522.546875 329.121094 C 522.578125 323.464844 522.671875 317.808594 522.664063 312.15625 C 522.65625 308.53125 523.765625 305.429688 527.28125 304.050781 C 530.753906 302.6875 533.753906 303.984375 536.21875 306.714844 C 544.910156 316.335938 553.609375 325.945313 562.339844 335.527344 C 568.050781 341.792969 573.796875 348.023438 579.589844 354.21875 C 581.371094 356.125 582.488281 358.1875 582.496094 360.871094 C 582.511719 364.113281 581.578125 366.75 578.53125 368.320313 C 575.578125 369.847656 573.023438 368.820313 570.6875 366.988281 C 569.382813 365.964844 568.171875 364.800781 567.050781 363.570313 C 559.121094 354.84375 551.222656 346.082031 543.308594 337.335938 C 541.882813 335.757813 540.753906 333.855469 538.109375 332.664063 "/>
<path style=" stroke:none;fill-rule:evenodd;fill:rgb(17.999268%,18.798828%,42.698669%);fill-opacity:1;" d="M 616.269531 469.230469 C 614.851563 469.710938 613.714844 469.753906 611.90625 468.953125 C 611.636719 458.34375 611.828125 447.410156 611.789063 436.484375 C 611.757813 425.558594 611.785156 414.628906 610.871094 403.648438 C 607.59375 425.480469 604.3125 447.308594 601.085938 468.816406 C 599.371094 469.816406 598.109375 469.773438 596.179688 468.957031 C 592.902344 447.136719 589.574219 424.976563 586.246094 402.820313 C 586.007813 402.828125 585.769531 402.835938 585.527344 402.84375 L 585.527344 468.464844 C 583.859375 470.003906 582.546875 469.53125 580.878906 469.398438 L 580.878906 382.941406 C 583.117188 382.148438 585.34375 382.363281 588.148438 382.953125 C 591.613281 406.351563 595.089844 429.816406 598.5625 453.28125 C 598.78125 453.265625 599.003906 453.253906 599.222656 453.238281 C 602.738281 429.824219 606.253906 406.40625 609.761719 383.058594 C 612.0625 382.214844 614.003906 382.386719 615.929688 382.726563 C 616.941406 386.335938 617.257813 462.171875 616.269531 469.230469 "/>
<path style=" stroke:none;fill-rule:evenodd;fill:rgb(17.999268%,18.798828%,42.698669%);fill-opacity:1;" d="M 515.074219 468.96875 C 513.105469 469.789063 511.980469 469.617188 510.238281 469.277344 C 506.878906 446.875 503.507813 424.40625 500.136719 401.9375 C 499.953125 401.941406 499.769531 401.945313 499.589844 401.949219 L 499.589844 468.394531 C 497.925781 469.996094 496.53125 469.746094 494.804688 469.09375 L 494.804688 382.839844 C 497.152344 382.285156 499.257813 382.378906 502.121094 382.773438 C 505.601563 406.238281 509.09375 429.804688 512.589844 453.367188 C 512.804688 453.34375 513.023438 453.320313 513.242188 453.292969 C 516.730469 429.964844 520.21875 406.632813 523.707031 383.308594 C 525.828125 381.960938 527.929688 382.464844 530.429688 382.777344 L 530.429688 469.050781 C 529.898438 469.246094 529.460938 469.535156 529.011719 469.554688 C 528.195313 469.585938 527.382813 469.453125 525.921875 469.339844 L 525.921875 403.699219 C 525.574219 403.683594 525.226563 403.664063 524.882813 403.648438 C 521.605469 425.46875 518.328125 447.285156 515.074219 468.96875 "/>
<path style=" stroke:none;fill-rule:evenodd;fill:rgb(17.999268%,18.798828%,42.698669%);fill-opacity:1;" d="M 568.859375 409.460938 C 567.300781 407.070313 567.503906 404.273438 566.734375 401.773438 C 565.945313 399.195313 565.085938 396.714844 563.253906 394.679688 C 559.773438 390.824219 555.195313 390.621094 551.414063 394.207031 C 549.058594 396.441406 547.589844 399.261719 546.757813 402.34375 C 542.730469 417.246094 542.574219 432.253906 545.945313 447.28125 C 546.75 450.871094 548.226563 454.25 550.785156 457.015625 C 554.714844 461.265625 559.15625 461.570313 563.539063 457.851563 C 566.839844 455.050781 569.078125 451.839844 568.570313 447.082031 C 568.1875 443.5 568.496094 439.84375 568.496094 435.753906 L 558.113281 435.753906 C 557.050781 432.269531 557.382813 429.210938 557.742188 425.789063 C 562.949219 425.230469 567.988281 425.28125 572.84375 425.746094 C 573.921875 427.234375 573.605469 428.609375 573.613281 429.902344 C 573.644531 437.890625 573.671875 445.882813 573.613281 453.867188 C 573.566406 460.527344 565.804688 469.546875 559.285156 470.527344 C 555.570313 471.089844 552.414063 469.675781 549.671875 467.296875 C 546.851563 464.851563 544.964844 461.726563 543.488281 458.332031 C 540.941406 452.46875 539.734375 446.261719 539.089844 439.960938 C 537.675781 426.296875 538.050781 412.695313 541.546875 399.328125 C 542.898438 394.160156 544.773438 389.1875 548.8125 385.34375 C 554.867188 379.585938 562.519531 380.234375 567.175781 387.160156 C 570.796875 392.550781 571.949219 398.796875 572.710938 405.105469 C 573.039063 407.855469 571.289063 408.863281 568.859375 409.460938 "/>
<path style=" stroke:none;fill-rule:evenodd;fill:rgb(17.999268%,18.798828%,42.698669%);fill-opacity:1;" d="M 752.027344 440.257813 C 753.765625 439.269531 754.992188 439.285156 756.453125 440.066406 C 756.882813 442.734375 757.273438 445.515625 757.769531 448.273438 C 758.433594 451.9375 759.675781 455.351563 762.46875 457.988281 C 766.269531 461.589844 770.945313 461.207031 774.121094 457.058594 C 780.25 449.050781 777.890625 436.511719 769.296875 431.40625 C 768.292969 430.816406 767.308594 430.175781 766.257813 429.6875 C 758.800781 426.203125 754.898438 420.214844 753.863281 412.203125 C 753.003906 405.539063 753.089844 398.925781 755.226563 392.464844 C 755.640625 391.203125 756.097656 389.941406 756.695313 388.757813 C 758.765625 384.652344 761.835938 381.636719 766.652344 381.539063 C 771.457031 381.441406 774.8125 384.179688 776.90625 388.308594 C 779.878906 394.179688 781.257813 400.410156 780.613281 406.789063 C 779.304688 407.898438 778.179688 407.53125 777.003906 407.445313 C 776.734375 406.929688 776.425781 406.527344 776.316406 406.082031 C 775.636719 403.171875 775.480469 400.140625 774.3125 397.34375 C 772.636719 393.328125 770.085938 391.503906 766.402344 391.679688 C 762.480469 391.863281 760.515625 394.367188 759.335938 397.734375 C 757.921875 401.773438 757.886719 405.898438 758.90625 410.007813 C 759.53125 412.519531 761.035156 414.515625 763.289063 415.851563 C 766.007813 417.46875 768.726563 419.070313 771.484375 420.613281 C 776.273438 423.289063 779.214844 427.410156 780.574219 432.605469 C 782.996094 441.851563 782.660156 451.054688 779.632813 460.132813 C 778.996094 462.035156 778.078125 463.8125 776.910156 465.445313 C 772.011719 472.300781 763.539063 472.417969 758.398438 465.679688 C 754.953125 461.164063 753.714844 455.773438 752.789063 450.359375 C 752.214844 446.972656 752.253906 443.480469 752.027344 440.257813 "/>
<path style=" stroke:none;fill-rule:evenodd;fill:rgb(17.999268%,18.798828%,42.698669%);fill-opacity:1;" d="M 708.425781 407.160156 C 706.984375 407.710938 705.871094 407.789063 704.46875 406.929688 C 704.160156 405.226563 703.820313 403.277344 703.460938 401.339844 C 703.03125 399.027344 702.355469 396.792969 700.976563 394.863281 C 697.820313 390.464844 691.8125 390.5 688.730469 394.898438 C 683.695313 402.085938 686.085938 412.980469 693.664063 417.394531 C 694.097656 417.644531 694.527344 417.90625 694.988281 418.097656 C 705.121094 422.265625 709.46875 430.214844 709.988281 440.78125 C 710.269531 446.480469 709.972656 452.097656 708.460938 457.597656 C 707.933594 459.511719 707.203125 461.40625 706.285156 463.160156 C 704.101563 467.335938 701.070313 470.621094 695.9375 470.601563 C 690.761719 470.585938 687.273438 467.6875 684.84375 463.328125 C 683.292969 460.539063 682.410156 457.503906 681.621094 454.4375 C 680.414063 449.742188 680.0625 444.976563 680.242188 440.226563 C 681.597656 439.15625 682.851563 439.402344 684.429688 439.953125 C 684.878906 442.746094 685.28125 445.6875 685.839844 448.597656 C 686.535156 452.253906 687.847656 455.644531 690.714844 458.214844 C 694.433594 461.539063 698.925781 461.125 702.027344 457.195313 C 708.226563 449.34375 705.953125 436.566406 697.453125 431.488281 C 696.453125 430.894531 695.476563 430.242188 694.421875 429.761719 C 686.730469 426.253906 682.8125 420.0625 681.8125 411.882813 C 680.933594 404.699219 681.152344 397.578125 683.8125 390.730469 C 686.113281 384.800781 690.292969 381.257813 694.988281 381.511719 C 700.683594 381.820313 703.863281 385.464844 705.933594 390.390625 C 708.167969 395.714844 709.050781 401.3125 708.425781 407.160156 "/>
<path style=" stroke:none;fill-rule:evenodd;fill:rgb(17.999268%,18.798828%,42.698669%);fill-opacity:1;" d="M 475.632813 30.089844 C 472.945313 31.800781 470.023438 31.726563 467.347656 32.449219 C 461.878906 25.695313 456.988281 24.027344 450.640625 26.828125 C 449.441406 27.355469 448.246094 28.0625 447.292969 28.949219 C 441.523438 34.289063 442.1875 48.097656 448.382813 52.941406 C 452.949219 56.511719 461.070313 56.300781 465.664063 52.496094 C 467.386719 51.074219 467.453125 50.59375 466.492188 45.757813 L 457.277344 45.757813 C 456.09375 43.328125 456.648438 41.246094 456.648438 38.847656 C 460.019531 38.238281 463.160156 38.566406 466.273438 38.511719 C 469.425781 38.453125 472.582031 38.496094 476.394531 38.496094 C 476.84375 44.324219 476.679688 49.914063 476.507813 55.496094 C 476.46875 56.785156 475.285156 57.410156 474.257813 57.96875 C 465.539063 62.714844 456.402344 64.359375 446.871094 60.957031 C 437.933594 57.765625 432.890625 49 433.59375 38.609375 C 434.269531 28.628906 440.519531 21.382813 450.0625 19.195313 C 455.074219 18.046875 459.992188 18.347656 464.871094 19.589844 C 470.40625 21 473.460938 24.035156 475.632813 30.089844 "/>
<path style=" stroke:none;fill-rule:evenodd;fill:rgb(17.999268%,18.798828%,42.698669%);fill-opacity:1;" d="M 536.605469 31.398438 C 533.507813 31.859375 530.878906 31.75 528.34375 31.570313 C 524.5625 25.859375 520.3125 24.253906 514.859375 26.367188 C 513.253906 26.992188 511.726563 27.722656 511.753906 29.785156 C 511.78125 31.546875 513.019531 32.527344 514.457031 33.035156 C 516.964844 33.921875 519.535156 34.632813 522.105469 35.308594 C 525.324219 36.160156 528.59375 36.851563 531.558594 38.433594 C 536.117188 40.867188 538.261719 44.648438 538.019531 49.875 C 537.789063 54.878906 535.464844 58.589844 530.996094 60.511719 C 523.992188 63.523438 516.714844 63.652344 509.59375 60.855469 C 504.535156 58.867188 501.828125 54.84375 500.996094 49.238281 C 503.582031 47.738281 506.464844 48.335938 508.816406 47.601563 C 510.066406 48.347656 510.230469 49.398438 510.703125 50.253906 C 513.609375 55.539063 521.378906 57.367188 526.28125 53.929688 C 527.902344 52.789063 528.8125 51.289063 528.578125 49.257813 C 528.359375 47.335938 527.015625 46.335938 525.359375 45.828125 C 522.019531 44.804688 518.648438 43.863281 515.269531 42.984375 C 512.507813 42.265625 509.828125 41.355469 507.492188 39.710938 C 500.511719 34.804688 500.785156 25.132813 508.3125 21.132813 C 515.667969 17.226563 523.4375 17.316406 530.847656 21.167969 C 534.589844 23.113281 536.660156 26.5 536.605469 31.398438 "/>
<path style=" stroke:none;fill-rule:evenodd;fill:rgb(17.999268%,18.798828%,42.698669%);fill-opacity:1;" d="M 72.097656 49.105469 C 74.730469 47.789063 77.496094 48.402344 79.730469 47.601563 C 80.886719 48.117188 81.078125 48.984375 81.464844 49.695313 C 84.492188 55.273438 90.75 57.285156 96.351563 54.46875 C 98.253906 53.511719 99.625 52.175781 99.660156 49.882813 C 99.695313 47.441406 98.109375 46.296875 96.070313 45.695313 C 92.558594 44.652344 89.011719 43.746094 85.488281 42.761719 C 82.746094 41.996094 80.085938 41.035156 77.851563 39.199219 C 71.769531 34.195313 72.046875 25.449219 78.839844 21.46875 C 86.4375 17.015625 94.496094 17.359375 102.199219 21.378906 C 105.773438 23.242188 107.652344 26.601563 107.699219 31.03125 C 104.953125 32.285156 102.15625 31.492188 99.527344 31.621094 C 95.632813 26.0625 92.347656 24.5625 86.988281 25.992188 C 85.074219 26.503906 82.929688 27.101563 82.832031 29.636719 C 82.746094 31.882813 84.527344 32.777344 86.285156 33.367188 C 88.648438 34.160156 91.097656 34.691406 93.488281 35.410156 C 96.347656 36.273438 99.285156 36.996094 102.015625 38.175781 C 106.738281 40.222656 109.121094 43.894531 109.085938 49.1875 C 109.046875 54.621094 106.695313 58.605469 101.769531 60.636719 C 94.90625 63.464844 87.800781 63.609375 80.828125 60.910156 C 75.542969 58.863281 72.789063 54.761719 72.097656 49.105469 "/>
<path style=" stroke:none;fill-rule:evenodd;fill:rgb(17.999268%,18.399048%,41.999817%);fill-opacity:1;" d="M 657.78125 543.164063 C 659.546875 543.558594 660.742188 544.371094 661.878906 545.890625 C 661.546875 553.367188 660.03125 560.785156 656.546875 567.738281 C 656.027344 568.769531 655.351563 569.742188 654.636719 570.648438 C 650.707031 575.625 644.855469 575.988281 640.355469 571.535156 C 637.929688 569.132813 636.613281 566.054688 635.484375 562.914063 C 633.617188 557.722656 632.546875 552.320313 632.058594 546.851563 C 630.761719 532.234375 630.226563 517.621094 633.535156 503.15625 C 634.386719 499.421875 635.527344 495.773438 637.398438 492.390625 C 638.371094 490.636719 639.46875 488.984375 640.925781 487.585938 C 645.660156 483.027344 651.113281 483.441406 654.988281 488.78125 C 657.773438 492.621094 659.1875 497.0625 660.101563 501.667969 C 660.617188 504.265625 661.046875 506.878906 661.476563 509.277344 C 660.320313 511.03125 658.921875 511.769531 656.929688 511.992188 C 656.382813 509.425781 655.914063 506.847656 655.273438 504.316406 C 653.652344 497.933594 650.890625 494.449219 647.3125 494.730469 C 642.027344 495.148438 640.507813 499.519531 638.980469 503.5625 C 636.90625 509.070313 636.496094 514.9375 636.089844 520.726563 C 635.375 530.882813 635.839844 541.011719 637.730469 551.039063 C 638.445313 554.828125 639.546875 558.507813 642.09375 561.515625 C 645.519531 565.566406 649.320313 565.371094 652.34375 561.015625 C 654.878906 557.355469 655.605469 553.054688 656.429688 548.808594 C 656.777344 547.039063 656.628906 545.160156 657.78125 543.164063 "/>
<path style=" stroke:none;fill-rule:evenodd;fill:rgb(17.999268%,18.798828%,42.698669%);fill-opacity:1;" d="M 585.84375 19.703125 L 618.476563 19.703125 C 620.003906 21.796875 619.203125 23.890625 619.199219 26.578125 L 595.085938 26.578125 C 594.441406 29.757813 594.492188 32.320313 595.011719 35.410156 L 616.851563 35.410156 C 617.953125 37.933594 617.695313 39.988281 617.261719 42.34375 C 609.882813 43.242188 602.574219 42.242188 595.03125 42.949219 C 594.246094 46.632813 594.757813 50.210938 594.710938 54.382813 L 619.285156 54.382813 C 620.199219 56.980469 620.171875 59.015625 619.46875 61.386719 L 586.167969 61.386719 C 585.074219 57.820313 584.78125 26.347656 585.84375 19.703125 "/>
<path style=" stroke:none;fill-rule:evenodd;fill:rgb(17.999268%,18.798828%,42.698669%);fill-opacity:1;" d="M 401.886719 42.875 C 401.59375 47.023438 401.496094 50.476563 401.925781 54.496094 L 426.257813 54.496094 C 427.269531 56.96875 427.097656 58.902344 426.539063 61.535156 C 415.445313 61.886719 404.242188 61.621094 392.660156 61.714844 L 392.660156 19.808594 L 425.722656 19.808594 C 426.773438 21.96875 426.535156 24.023438 425.902344 26.535156 L 402.496094 26.535156 C 401.140625 29.453125 401.734375 32.074219 401.863281 35.355469 L 424.09375 35.355469 C 424.808594 37.933594 424.734375 39.871094 424.273438 42.535156 C 416.882813 42.648438 409.367188 42.761719 401.886719 42.875 "/>
<path style=" stroke:none;fill-rule:evenodd;fill:rgb(17.999268%,18.798828%,42.698669%);fill-opacity:1;" d="M 674.578125 61.550781 L 674.578125 19.796875 L 707.707031 19.796875 C 708.714844 21.996094 708.53125 24.046875 707.832031 26.554688 L 684.425781 26.554688 C 683.136719 29.480469 683.679688 32.09375 683.847656 35.378906 L 705.992188 35.378906 C 706.871094 37.957031 706.546875 39.902344 706.4375 42.363281 C 698.976563 43.207031 691.53125 42.296875 683.882813 42.914063 C 683.496094 46.800781 683.480469 50.359375 683.933594 54.515625 L 708.144531 54.515625 C 709.304688 56.996094 709.035156 58.9375 708.511719 61.460938 C 697.257813 61.886719 685.929688 61.769531 674.578125 61.550781 "/>
<path style=" stroke:none;fill-rule:evenodd;fill:rgb(17.999268%,18.399048%,41.999817%);fill-opacity:1;" d="M 735.117188 510.980469 C 733.320313 511.246094 732.253906 510.929688 731.015625 509.996094 C 731 504 731.679688 497.957031 734.132813 492.222656 C 734.714844 490.863281 735.523438 489.542969 736.472656 488.417969 C 739.890625 484.378906 744.679688 484.433594 747.976563 488.59375 C 751.085938 492.515625 752.121094 497.230469 752.742188 502.070313 C 754.308594 514.304688 752.140625 525.9375 747.105469 537.09375 C 744.503906 542.859375 741.734375 548.542969 739.121094 554.300781 C 738.035156 556.691406 736.859375 559.089844 736.664063 561.984375 C 742.117188 563.085938 747.472656 561.796875 752.816406 562.808594 C 753.847656 566.316406 753.355469 569.703125 753.089844 573.363281 L 730.652344 573.363281 C 729.773438 569.898438 730.320313 566.644531 730.917969 563.414063 C 732.351563 555.648438 735.371094 548.457031 738.882813 541.429688 C 742.519531 534.128906 745.988281 526.757813 747.804688 518.726563 C 748.808594 514.277344 748.816406 509.796875 748.335938 505.316406 C 748.140625 503.523438 747.578125 501.722656 746.890625 500.050781 C 745.992188 497.875 744.835938 495.652344 742 495.742188 C 739.257813 495.828125 738.117188 497.988281 737.09375 500.140625 C 735.484375 503.519531 735.828125 507.292969 735.117188 510.980469 "/>
<path style=" stroke:none;fill-rule:evenodd;fill:rgb(17.999268%,18.399048%,41.999817%);fill-opacity:1;" d="M 539.875 510.097656 C 542.460938 509.074219 544.40625 509.542969 546.785156 509.628906 C 549.371094 522.914063 550.621094 536.292969 553.308594 549.527344 C 555.3125 536.324219 557.320313 523.128906 559.308594 510.054688 C 561.644531 509.222656 563.574219 509.320313 566.230469 509.886719 C 562.898438 531.058594 559.582031 552.132813 556.300781 572.984375 C 554 573.839844 552.242188 573.839844 549.949219 572.988281 C 546.628906 552.246094 543.269531 531.28125 539.875 510.097656 "/>
<path style=" stroke:none;fill-rule:evenodd;fill:rgb(17.999268%,18.798828%,42.698669%);fill-opacity:1;" d="M 713.949219 383.015625 C 716.246094 382.203125 717.863281 382.476563 719.953125 382.808594 C 723.601563 395.671875 727.265625 408.597656 731.21875 422.527344 C 735.179688 408.71875 738.894531 395.757813 742.554688 382.996094 C 744.605469 382.324219 746.199219 382.214844 747.824219 382.933594 C 748.207031 384.699219 747.394531 386.195313 746.929688 387.753906 C 742.871094 401.296875 738.835938 414.851563 734.710938 428.375 C 733.867188 431.121094 733.472656 433.855469 733.488281 436.71875 C 733.546875 447.363281 733.511719 458.007813 733.511719 468.347656 C 732.027344 470.054688 730.574219 469.660156 729.203125 469.332031 C 728.40625 468.675781 728.367188 467.828125 728.367188 467.007813 C 728.347656 457.679688 728.265625 448.355469 728.367188 439.03125 C 728.414063 434.988281 727.820313 431.136719 726.660156 427.257813 C 722.695313 414.03125 718.917969 400.75 715.082031 387.488281 C 714.671875 386.0625 714.351563 384.613281 713.949219 383.015625 "/>
<path style=" stroke:none;fill-rule:evenodd;fill:rgb(17.999268%,18.798828%,42.698669%);fill-opacity:1;" d="M 640.65625 468.78125 C 638.558594 469.78125 637.300781 469.796875 635.542969 468.972656 L 635.542969 393.476563 C 631.328125 391.792969 627.226563 393.390625 623.226563 392.230469 C 622.28125 389.195313 622.59375 386.148438 623.003906 382.777344 L 652.238281 382.777344 C 653.242188 385.828125 652.894531 388.886719 652.503906 392.210938 C 648.730469 393.261719 644.84375 392.113281 640.65625 393.082031 "/>
<path style=" stroke:none;fill-rule:evenodd;fill:rgb(17.999268%,18.798828%,42.698669%);fill-opacity:1;" d="M 556.558594 26.792969 L 543.761719 26.792969 C 542.386719 24.308594 542.730469 22.246094 543.226563 19.835938 L 578.746094 19.835938 C 580.042969 21.753906 579.535156 23.839844 579.171875 26.171875 C 574.976563 27.449219 570.585938 26.070313 565.9375 27.160156 L 565.9375 60.949219 C 562.746094 62.164063 559.988281 61.644531 556.558594 61.449219 "/>
<path style=" stroke:none;fill-rule:evenodd;fill:rgb(17.999268%,18.798828%,42.698669%);fill-opacity:1;" d="M 303.878906 61.265625 L 303.878906 33.160156 C 299.847656 34.648438 297.171875 37.742188 292.949219 38.140625 C 292.234375 35.789063 292.539063 33.40625 292.726563 30.84375 C 297.949219 28.171875 303.046875 25.339844 305.648438 19.863281 C 308 19.296875 310.097656 19.492188 312.53125 19.753906 L 312.53125 61.246094 C 309.789063 61.953125 307.207031 61.824219 303.878906 61.265625 "/>
<path style=" stroke:none;fill-rule:evenodd;fill:rgb(17.999268%,18.798828%,42.698669%);fill-opacity:1;" d="M 485.410156 19.84375 C 488.296875 19.257813 490.921875 19.542969 493.472656 19.625 C 494.628906 23.421875 494.882813 55.101563 493.820313 61.285156 C 491.183594 62.039063 488.429688 61.738281 485.710938 61.453125 C 484.59375 57.78125 484.34375 26.066406 485.410156 19.84375 "/>
<path style=" stroke:none;fill-rule:evenodd;fill:rgb(17.999268%,18.798828%,42.698669%);fill-opacity:1;" d="M 65.847656 61.394531 C 62.96875 61.839844 60.339844 61.851563 57.746094 61.425781 C 56.648438 57.761719 56.40625 25.988281 57.460938 19.90625 C 60.097656 19.171875 62.851563 19.46875 65.574219 19.757813 C 66.683594 23.457031 66.921875 55.207031 65.847656 61.394531 "/>
<path style=" stroke:none;fill-rule:evenodd;fill:rgb(17.999268%,18.798828%,42.698669%);fill-opacity:1;" d="M 590.484375 582.964844 L 590.484375 617.925781 C 587.773438 619.472656 586.703125 617.753906 585.714844 615.9375 C 581.902344 608.925781 578.128906 601.890625 574.277344 594.898438 C 573.492188 593.46875 572.980469 591.835938 571.019531 590.183594 C 571.019531 598.40625 571.019531 606.074219 571.027344 613.742188 C 571.027344 614.738281 571.171875 615.742188 571.113281 616.734375 C 571.003906 618.660156 569.738281 618.703125 567.503906 618.207031 C 567.492188 606.640625 567.492188 594.929688 567.507813 583.214844 C 570.425781 581.613281 571.59375 583.144531 572.710938 585.253906 C 576.675781 592.75 580.707031 600.210938 584.765625 607.65625 C 585.277344 608.601563 585.382813 609.945313 587.195313 610.359375 C 587.195313 602.820313 587.1875 595.402344 587.203125 587.988281 C 587.207031 586.660156 587.183594 585.316406 587.378906 584.011719 C 587.613281 582.4375 588.742188 582.378906 590.484375 582.964844 "/>
<path style=" stroke:none;fill-rule:evenodd;fill:rgb(17.999268%,18.798828%,42.698669%);fill-opacity:1;" d="M 46.871094 618.105469 L 46.871094 583.023438 C 49.523438 581.726563 50.660156 583.140625 51.695313 585.089844 C 55.671875 592.585938 59.707031 600.046875 63.746094 607.507813 C 64.277344 608.496094 64.507813 609.714844 66.261719 610.601563 C 66.261719 606.257813 66.257813 602.21875 66.261719 598.179688 C 66.265625 593.851563 66.265625 589.523438 66.289063 585.195313 C 66.296875 583.480469 66.746094 582.171875 69.625 582.902344 C 69.90625 594.550781 69.738281 606.402344 69.730469 618.003906 C 66.53125 619.34375 65.617188 617.453125 64.640625 615.65625 C 60.910156 608.785156 57.175781 601.917969 53.441406 595.046875 C 52.65625 593.605469 51.847656 592.171875 50.765625 590.222656 C 49.820313 591.621094 50.082031 592.730469 50.078125 593.726563 C 50.050781 600.882813 50.078125 608.042969 50.046875 615.203125 C 50.039063 617.039063 50.160156 619.136719 46.871094 618.105469 "/>
<path style=" stroke:none;fill-rule:evenodd;fill:rgb(17.999268%,18.798828%,42.698669%);fill-opacity:1;" d="M 73.660156 583.015625 C 76.519531 581.910156 77.328125 583.15625 77.882813 585.265625 C 79.777344 592.488281 81.800781 599.675781 83.777344 606.871094 C 84.171875 608.308594 84.578125 609.742188 85.097656 611.613281 C 87.058594 608.109375 87.441406 604.507813 88.449219 601.128906 C 90.015625 595.882813 91.355469 590.570313 92.785156 585.285156 C 93.3125 583.339844 94.070313 581.773438 96.621094 582.785156 C 97.414063 583.871094 96.734375 584.976563 96.433594 586.015625 C 93.648438 595.574219 90.8125 605.117188 87.996094 614.664063 C 87.808594 615.304688 87.699219 615.964844 87.46875 616.585938 C 87.054688 617.730469 86.472656 618.660156 84.996094 618.566406 C 83.808594 618.484375 83.238281 617.761719 82.855469 616.796875 C 82.671875 616.335938 82.601563 615.832031 82.464844 615.355469 C 79.605469 605.296875 76.742188 595.242188 73.902344 585.179688 C 73.726563 584.554688 73.75 583.875 73.660156 583.015625 "/>
<path style=" stroke:none;fill-rule:evenodd;fill:rgb(17.999268%,18.798828%,42.698669%);fill-opacity:1;" d="M 141.910156 589.246094 C 140.679688 589.265625 140.183594 588.488281 139.476563 588.105469 C 133.917969 585.113281 128.957031 586.8125 126.523438 592.71875 C 124.476563 597.683594 124.519531 602.796875 126.398438 607.789063 C 129.011719 614.726563 135.148438 616.386719 140.960938 611.683594 C 142.523438 610.421875 143.464844 610.335938 144.515625 611.988281 C 141.84375 620.019531 129.980469 621.058594 124.773438 613.4375 C 120.296875 606.890625 120.109375 594.355469 124.632813 587.847656 C 128.769531 581.890625 137.234375 580.589844 142.03125 585.136719 C 143.457031 586.488281 144.097656 587.765625 141.910156 589.246094 "/>
<path style=" stroke:none;fill-rule:evenodd;fill:rgb(17.999268%,18.798828%,42.698669%);fill-opacity:1;" d="M 419.652344 611.144531 C 421.980469 602.679688 424.304688 594.207031 426.632813 585.746094 C 427.175781 583.773438 427.628906 581.664063 430.558594 582.777344 C 431.300781 583.5 430.855469 584.355469 430.644531 585.082031 C 427.726563 595.121094 424.769531 605.152344 421.824219 615.183594 C 421.730469 615.5 421.695313 615.835938 421.585938 616.148438 C 421.132813 617.421875 420.6875 618.679688 418.921875 618.554688 C 417.460938 618.453125 416.988281 617.4375 416.65625 616.285156 C 416.105469 614.371094 415.613281 612.441406 415.074219 610.527344 C 412.863281 602.699219 410.632813 594.875 408.4375 587.039063 C 408.085938 585.78125 407.425781 584.554688 407.8125 582.976563 C 410.175781 581.839844 411.203125 582.832031 411.851563 585.289063 C 414.128906 593.953125 416.558594 602.570313 418.929688 611.207031 C 419.171875 611.1875 419.414063 611.164063 419.652344 611.144531 "/>
<path style=" stroke:none;fill-rule:evenodd;fill:rgb(17.999268%,18.798828%,42.698669%);fill-opacity:1;" d="M 187.40625 593.324219 C 189.382813 591.273438 186.710938 587.59375 190.867188 587.589844 C 192.414063 589.101563 191.246094 591.199219 191.984375 592.527344 C 193.160156 594.421875 197.074219 591.914063 196.570313 595.761719 C 195.414063 597.1875 193.621094 596.195313 192.246094 597.128906 C 192.125 597.46875 191.832031 597.921875 191.824219 598.378906 C 191.769531 601.707031 191.753906 605.039063 191.753906 608.367188 C 191.761719 614.628906 191.769531 614.628906 197.460938 616.078125 C 197.375 618.757813 195.394531 618.621094 193.613281 618.585938 C 191.21875 618.535156 189.378906 617.433594 188.757813 615.058594 C 188.382813 613.636719 188.4375 612.09375 188.410156 610.597656 C 188.339844 606.441406 188.332031 602.28125 188.273438 598.121094 C 188.269531 597.820313 188.039063 597.519531 187.773438 596.882813 C 184.429688 596.726563 181.171875 597.457031 178.167969 599.203125 C 176.222656 600.335938 175.84375 602.261719 175.878906 604.390625 C 175.941406 608.21875 175.933594 612.050781 175.855469 615.878906 C 175.816406 617.660156 175.703125 617.65625 172.917969 618.425781 L 172.917969 594 C 175.664063 592.703125 175.75 594.816406 176.292969 597.308594 C 179.480469 593.242188 184.050781 593.867188 187.40625 593.324219 "/>
<path style=" stroke:none;fill-rule:evenodd;fill:rgb(17.999268%,18.798828%,42.698669%);fill-opacity:1;" d="M 503.304688 594.773438 C 505.191406 594.910156 506.613281 593.878906 508.207031 593.578125 C 512.472656 592.757813 515.957031 594.789063 516.820313 599.039063 C 518.023438 604.9375 517.402344 610.949219 517.261719 616.917969 C 517.226563 618.523438 515.992188 618.546875 514.878906 618.46875 C 513.300781 616.964844 513.867188 615.210938 513.824219 613.632813 C 513.71875 609.484375 513.90625 605.320313 513.652344 601.183594 C 513.445313 597.804688 511.621094 596.453125 508.386719 596.671875 C 504.699219 596.921875 503.078125 598.371094 502.964844 601.664063 C 502.777344 607.105469 503.246094 612.5625 502.660156 618.136719 C 500.996094 618.632813 499.871094 618.625 499.652344 616.742188 C 499.558594 615.921875 499.582031 615.085938 499.582031 614.253906 C 499.574219 604.953125 499.542969 595.652344 499.613281 586.351563 C 499.625 584.761719 498.835938 582.339844 502.242188 582.710938 C 503.914063 586.546875 502.191406 590.820313 503.304688 594.773438 "/>
<path style=" stroke:none;fill-rule:evenodd;fill:rgb(17.999268%,18.798828%,42.698669%);fill-opacity:1;" d="M 637.917969 598.964844 C 637.917969 604.441406 637.941406 609.90625 637.902344 615.378906 C 637.894531 617.027344 638.035156 618.972656 634.773438 618.148438 C 634.429688 606.445313 634.425781 594.617188 634.777344 582.664063 C 639.410156 582.6875 637.644531 585.835938 637.863281 587.679688 C 638.140625 589.949219 637.929688 592.28125 637.929688 594.554688 C 639.855469 595.101563 641.097656 594.058594 642.480469 593.730469 C 647.460938 592.542969 651.140625 594.714844 651.945313 599.789063 C 652.90625 605.859375 652.355469 611.980469 652.304688 617.855469 C 649.933594 619.015625 648.90625 618.320313 648.855469 616.347656 C 648.757813 612.859375 648.796875 609.371094 648.78125 605.886719 C 648.777344 605.386719 648.78125 604.886719 648.777344 604.390625 C 648.703125 596.390625 645.691406 594.675781 637.917969 598.964844 "/>
<path style=" stroke:none;fill-rule:evenodd;fill:rgb(17.999268%,18.798828%,42.698669%);fill-opacity:1;" d="M 345.695313 618.230469 C 345 615.496094 345.382813 612.839844 345.304688 610.222656 C 345.246094 608.234375 345.339844 606.238281 345.273438 604.246094 C 345.179688 601.605469 345.492188 598.5625 342.695313 597.15625 C 339.671875 595.636719 337.003906 597.382813 334.292969 598.851563 L 334.292969 617.742188 C 332.164063 618.894531 330.820313 618.6875 330.792969 616.570313 C 330.691406 608.980469 330.753906 601.390625 330.753906 594.203125 C 333.164063 592.648438 333.800781 594.875 335.070313 595.214844 C 345.011719 590.578125 349.390625 595.863281 348.707031 604.691406 C 348.414063 608.492188 348.644531 612.328125 348.628906 616.148438 C 348.625 617.710938 348.128906 618.757813 345.695313 618.230469 "/>
<path style=" stroke:none;fill-rule:evenodd;fill:rgb(17.999268%,18.798828%,42.698669%);fill-opacity:1;" d="M 733.925781 599.328125 L 733.925781 618.042969 C 731.078125 619.152344 730.683594 617.621094 730.671875 615.730469 C 730.644531 611.078125 730.613281 606.425781 730.667969 601.777344 C 730.699219 599.144531 730.34375 596.480469 730.960938 594.042969 C 732.929688 592.710938 733.714844 594.574219 734.859375 595.171875 C 735.246094 595.09375 735.578125 595.066406 735.878906 594.953125 C 744.671875 591.660156 748.53125 594.246094 748.601563 603.535156 C 748.640625 608.457031 748.609375 613.382813 748.609375 618.03125 C 746.101563 618.828125 745.34375 618.035156 745.300781 616.363281 C 745.253906 614.371094 745.253906 612.375 745.242188 610.382813 C 745.234375 608.390625 745.273438 606.394531 745.230469 604.402344 C 745.0625 596.226563 741.804688 594.574219 733.925781 599.328125 "/>
<path style=" stroke:none;fill-rule:evenodd;fill:rgb(17.999268%,18.798828%,42.698669%);fill-opacity:1;" d="M 486.832031 618.089844 C 483.390625 619.003906 483.300781 617.242188 483.296875 615.484375 C 483.273438 609.320313 483.277344 603.15625 483.277344 596.996094 C 483.273438 593.707031 483.277344 590.417969 483.277344 587.335938 C 479.851563 585.9375 476.71875 587.347656 474.015625 586.191406 C 473.191406 585.199219 473.386719 584.238281 473.683594 583.027344 C 477.3125 581.851563 481.132813 582.59375 484.882813 582.460938 C 488.527344 582.328125 492.1875 582.433594 495.480469 582.433594 C 497.027344 583.558594 496.707031 584.710938 496.433594 586.019531 C 493.59375 587.476563 490.253906 585.890625 486.832031 587.292969 "/>
<path style=" stroke:none;fill-rule:evenodd;fill:rgb(17.999268%,18.798828%,42.698669%);fill-opacity:1;" d="M 791.929688 598.617188 C 789.816406 597.476563 787.804688 596.214844 785.320313 596.691406 C 783.78125 596.988281 782.34375 597.53125 781.925781 599.203125 C 781.476563 601.003906 782.695313 602 784.128906 602.636719 C 786.09375 603.515625 788.152344 604.195313 790.113281 605.078125 C 794.019531 606.832031 795.425781 609.222656 794.808594 612.863281 C 794.265625 616.054688 791.480469 618.320313 787.605469 618.597656 C 784.699219 618.804688 781.976563 618.222656 779.683594 616.289063 C 778.199219 615.039063 778.148438 613.828125 779.882813 612.710938 C 781.394531 612.609375 782.136719 613.945313 783.261719 614.554688 C 785.3125 615.671875 787.386719 615.800781 789.453125 614.769531 C 792.113281 613.449219 792.410156 610.421875 789.933594 608.820313 C 788.421875 607.847656 786.636719 607.265625 784.929688 606.636719 C 783.195313 606 781.511719 605.3125 780.203125 603.964844 C 777.949219 601.628906 777.890625 598.203125 780.03125 595.867188 C 782.859375 592.777344 789.933594 592.582031 792.859375 595.539063 C 793.96875 596.65625 793.589844 597.585938 791.929688 598.617188 "/>
<path style=" stroke:none;fill-rule:evenodd;fill:rgb(17.999268%,18.798828%,42.698669%);fill-opacity:1;" d="M 251.886719 597.078125 C 251.800781 598.027344 251.222656 598.554688 250.359375 598.839844 C 250.199219 598.839844 250.007813 598.902344 249.886719 598.832031 C 243.105469 594.882813 238.21875 597.664063 238.195313 605.546875 C 238.191406 606.859375 238.476563 608.203125 238.828125 609.476563 C 240.476563 615.425781 244.648438 616.925781 249.730469 613.457031 C 250.140625 613.179688 250.5625 612.929688 250.976563 612.667969 C 252.824219 613.238281 252.941406 614.261719 251.820313 615.59375 C 248.449219 619.609375 241.746094 619.644531 238.042969 615.683594 C 233.503906 610.832031 233.523438 601.160156 238.082031 596.335938 C 241.992188 592.203125 247.707031 592.507813 251.886719 597.078125 "/>
<path style=" stroke:none;fill-rule:evenodd;fill:rgb(17.999268%,18.798828%,42.698669%);fill-opacity:1;" d="M 210.046875 595.128906 C 213.066406 593.59375 213.359375 591.402344 213.765625 588.914063 C 214.714844 583.140625 219.554688 581.101563 224.851563 583.921875 C 224.875 585.207031 224.574219 586.191406 222.984375 586.210938 C 216.925781 586.265625 216.855469 586.347656 217.042969 592.546875 C 217.566406 593.382813 218.414063 593.363281 219.234375 593.429688 C 220.050781 593.496094 220.921875 593.414063 221.578125 594.28125 C 222.203125 598.058594 218.246094 595.691406 216.8125 597.984375 C 216.8125 602.59375 216.820313 607.878906 216.804688 613.167969 C 216.800781 614.492188 216.863281 615.84375 216.648438 617.136719 C 216.382813 618.722656 215.304688 618.757813 213.792969 617.972656 C 213.105469 612.703125 213.578125 607.246094 213.507813 601.8125 C 213.476563 599.179688 213.871094 596.503906 210.046875 595.128906 "/>
<path style=" stroke:none;fill-rule:evenodd;fill:rgb(17.999268%,18.798828%,42.698669%);fill-opacity:1;" d="M 290.660156 594.335938 C 290.535156 597.953125 287.226563 595.71875 285.761719 597.835938 C 285.761719 602.078125 285.816406 606.875 285.746094 611.667969 C 285.6875 615.566406 288.675781 615.390625 291.296875 615.609375 C 291.664063 618.371094 289.976563 618.515625 288.285156 618.605469 C 285.933594 618.734375 284.027344 617.964844 282.949219 615.734375 C 282.277344 614.339844 282.402344 612.8125 282.394531 611.320313 C 282.378906 606.835938 282.390625 602.347656 282.390625 599.019531 C 282.007813 596.078125 279.183594 597.210938 279.195313 595.101563 C 279.039063 593.109375 281.121094 593.753906 281.929688 592.886719 C 282.667969 588.195313 282.667969 588.195313 285.144531 587.875 C 286.253906 589.3125 285.347656 591.136719 286.0625 592.730469 C 287.203125 594.117188 289.339844 592.761719 290.660156 594.335938 "/>
<path style=" stroke:none;fill-rule:evenodd;fill:rgb(17.999268%,18.798828%,42.698669%);fill-opacity:1;" d="M 623.699219 597.78125 C 623.699219 601.878906 623.640625 606.199219 623.71875 610.511719 C 623.796875 614.601563 623.945313 614.679688 628.136719 615.433594 C 628.578125 615.511719 628.96875 615.855469 629.476563 616.125 C 629.148438 618.78125 627.203125 618.652344 625.429688 618.578125 C 623.039063 618.480469 621.1875 617.34375 620.679688 614.941406 C 620.300781 613.175781 620.378906 611.304688 620.355469 609.484375 C 620.316406 605.664063 620.347656 601.839844 620.277344 598.023438 C 620.148438 596.195313 617.277344 597.050781 617.394531 595.179688 C 617.324219 593.1875 619.515625 593.757813 620.34375 592.089844 C 621.234375 591.085938 618.753906 587.40625 622.890625 587.652344 C 624.28125 589.15625 623.257813 591.007813 624.28125 593.101563 C 625.015625 594.140625 627.144531 592.820313 628.507813 594.183594 C 629.089844 597.941406 625.355469 595.808594 623.699219 597.78125 "/>
<path style=" stroke:none;fill-rule:evenodd;fill:rgb(17.999268%,18.798828%,42.698669%);fill-opacity:1;" d="M 696.53125 582.917969 C 699.863281 582.082031 699.886719 583.890625 699.894531 585.621094 C 699.925781 589.785156 699.914063 593.945313 699.917969 598.109375 C 699.921875 601.773438 699.914063 605.4375 699.921875 609.101563 C 699.929688 614.0625 699.933594 614.0625 703.367188 616.785156 C 699.867188 619.472656 697.484375 618.847656 696.640625 615.007813 C 696.570313 614.6875 696.535156 614.347656 696.535156 614.019531 C 696.53125 603.722656 696.53125 593.429688 696.53125 582.917969 "/>
<path style=" stroke:none;fill-rule:evenodd;fill:rgb(17.999268%,18.798828%,42.698669%);fill-opacity:1;" d="M 680.851563 593.671875 C 683.253906 594.21875 683.328125 594.289063 684.164063 596.75 C 686.804688 595.710938 688.875 592.949219 692.101563 593.710938 C 692.964844 594.9375 692.734375 595.992188 692.003906 597.203125 C 690.671875 597.519531 689.179688 597.691406 687.828125 598.230469 C 685.328125 599.226563 683.746094 600.9375 683.816406 603.898438 C 683.910156 607.894531 683.828125 611.894531 683.808594 615.890625 C 683.800781 617.59375 683.421875 618.9375 680.851563 618.214844 "/>
<path style=" stroke:none;fill-rule:evenodd;fill:rgb(17.999268%,18.798828%,42.698669%);fill-opacity:1;" d="M 206.136719 594.125 L 206.136719 618.023438 C 203.371094 619.171875 202.878906 617.699219 202.867188 615.765625 C 202.832031 610.605469 202.824219 605.445313 202.847656 600.285156 C 202.855469 598.148438 202.617188 595.976563 203.175781 594.113281 C 204.257813 593.445313 205.039063 593.445313 206.136719 594.125 "/>
<path style=" stroke:none;fill-rule:evenodd;fill:rgb(17.999268%,18.798828%,42.698669%);fill-opacity:1;" d="M 299.382813 617.960938 C 296.898438 618.890625 295.921875 618.203125 295.910156 616.519531 C 295.847656 609.058594 295.882813 601.597656 295.882813 594.296875 C 298.027344 593.140625 299.320313 593.460938 299.347656 595.546875 C 299.441406 603.007813 299.382813 610.46875 299.382813 617.960938 "/>
<path style=" stroke:none;fill-rule:evenodd;fill:rgb(17.999268%,18.798828%,42.698669%);fill-opacity:1;" d="M 229.402344 593.90625 C 229.402344 601.449219 229.417969 608.902344 229.394531 616.359375 C 229.386719 618.03125 228.5 618.714844 227.15625 618.476563 C 225.953125 617.851563 225.894531 616.988281 225.890625 616.175781 C 225.855469 609.683594 225.832031 603.195313 225.859375 596.703125 C 225.863281 595.050781 225.78125 593.15625 229.402344 593.90625 "/>
<path style=" stroke:none;fill-rule:evenodd;fill:rgb(17.999268%,18.798828%,42.698669%);fill-opacity:1;" d="M 789.5625 459.183594 C 791.394531 458.121094 792.78125 458.554688 794.464844 458.773438 C 794.902344 462.257813 794.8125 465.511719 794.535156 468.789063 C 793.011719 470.023438 791.484375 469.765625 789.597656 469.078125 C 789.144531 465.839844 789.257813 462.589844 789.5625 459.183594 "/>
<path style=" stroke:none;fill-rule:evenodd;fill:rgb(17.999268%,18.798828%,42.698669%);fill-opacity:1;" d="M 653.644531 469.4375 C 653.210938 465.75 653.203125 462.503906 653.59375 459.335938 C 655.007813 458.066406 656.472656 458.488281 658.125 458.75 C 659.40625 462.050781 658.460938 465.472656 658.695313 468.582031 C 657.121094 470.074219 655.644531 469.5 653.644531 469.4375 "/>
<path style=" stroke:none;fill-rule:evenodd;fill:rgb(17.999268%,18.798828%,42.698669%);fill-opacity:1;" d="M 402.527344 612.585938 C 404.558594 612.574219 405.273438 613.769531 405.46875 615.097656 C 405.703125 616.699219 405.019531 618.164063 403.253906 618.417969 C 401.617188 618.652344 400.878906 617.335938 400.667969 615.96875 C 400.410156 614.304688 401.296875 613.171875 402.527344 612.585938 "/>
<path style=" stroke:none;fill-rule:evenodd;fill:rgb(17.999268%,18.798828%,42.698669%);fill-opacity:1;" d="M 439.574219 615.59375 C 439.273438 617.023438 438.746094 618.386719 437.183594 618.425781 C 435.328125 618.476563 434.613281 617.050781 434.65625 615.410156 C 434.695313 614.011719 435.351563 612.675781 436.941406 612.632813 C 438.816406 612.585938 439.3125 614.085938 439.574219 615.59375 "/>
<path style=" stroke:none;fill-rule:evenodd;fill:rgb(17.999268%,18.399048%,41.999817%);fill-opacity:1;" d="M 509.777344 521.351563 C 511.921875 521.246094 513.578125 520.199219 514.304688 518.0625 C 515.839844 513.535156 515.957031 508.953125 514.539063 504.386719 C 513.914063 502.375 512.734375 500.742188 510.382813 500.703125 C 507.605469 500.660156 504.800781 500.402344 501.746094 500.996094 L 501.746094 521.378906 C 504.835938 521.378906 507.3125 521.472656 509.777344 521.351563 M 517.527344 573.363281 C 515.496094 569.109375 514.910156 564.445313 513.578125 560.019531 C 511.753906 553.972656 510.3125 547.804688 508.425781 541.78125 C 507.085938 537.515625 506.257813 537.109375 501.460938 536.945313 L 501.460938 572.484375 C 500.046875 573.648438 499.207031 573.640625 498.386719 573.617188 C 497.246094 573.578125 496.054688 573.835938 494.640625 572.914063 L 494.640625 485.632813 C 500.605469 485.632813 506.390625 485.382813 512.136719 485.722656 C 515.859375 485.945313 518.46875 488.257813 519.957031 491.84375 C 521.316406 495.113281 522.144531 498.527344 522.46875 501.976563 C 523.113281 508.769531 523.332031 515.609375 521.753906 522.34375 C 520.632813 527.128906 518.984375 531.640625 514.003906 534.273438 C 517.472656 540.371094 519.300781 546.886719 520.863281 553.5 C 522.386719 559.957031 524.0625 566.378906 525.714844 572.980469 C 522.859375 574.027344 520.273438 573.667969 517.527344 573.363281 "/>
<path style=" stroke:none;fill-rule:evenodd;fill:rgb(17.999268%,18.399048%,41.999817%);fill-opacity:1;" d="M 596.511719 509.910156 C 595.175781 519.195313 593.839844 528.476563 592.472656 537.972656 C 595.738281 538.609375 598.457031 538.707031 601.484375 537.921875 C 600.078125 528.453125 598.695313 519.128906 597.308594 509.804688 C 597.042969 509.839844 596.777344 509.875 596.511719 509.910156 M 614.808594 573.183594 C 611.910156 573.785156 609.789063 573.765625 607.265625 573.285156 C 605.582031 567.164063 605.367188 560.667969 603.898438 554.125 C 599.515625 553.066406 595.074219 553.917969 590.433594 553.640625 C 588.691406 560.097656 588.566406 566.621094 587.09375 573.023438 C 584.769531 574.03125 582.519531 573.621094 579.546875 573.339844 C 584.089844 544.113281 588.597656 515.121094 593.101563 486.136719 C 595.691406 485.085938 597.9375 485.445313 600.773438 485.722656 C 605.441406 514.808594 610.097656 543.824219 614.808594 573.183594 "/>
<path style=" stroke:none;fill-rule:evenodd;fill:rgb(17.999268%,18.399048%,41.999817%);fill-opacity:1;" d="M 706.457031 507.734375 C 705.667969 504.3125 704.503906 501.019531 702.382813 498.171875 C 698.875 493.464844 694.472656 493.464844 690.945313 498.207031 C 688.726563 501.1875 687.433594 504.621094 686.714844 508.238281 C 684.136719 521.261719 684.050781 534.351563 686.070313 547.4375 C 686.808594 552.203125 688.117188 556.90625 690.992188 560.917969 C 694.390625 565.65625 699.019531 565.632813 702.4375 560.90625 C 704.410156 558.175781 705.59375 555.054688 706.382813 551.800781 C 708.160156 544.484375 708.714844 537.042969 708.519531 529.121094 C 708.757813 522.179688 708.109375 514.90625 706.457031 507.734375 M 679.980469 525.667969 C 680.203125 517.152344 680.910156 508.730469 683.34375 500.523438 C 684.484375 496.675781 685.925781 492.964844 688.238281 489.667969 C 693.097656 482.75 699.964844 482.691406 704.988281 489.53125 C 708.515625 494.332031 710.261719 499.910156 711.355469 505.636719 C 714.578125 522.488281 714.558594 539.34375 710.742188 556.117188 C 709.636719 560.996094 707.980469 565.703125 704.847656 569.730469 C 699.703125 576.324219 693.316406 576.261719 688.410156 569.542969 C 686.03125 566.277344 684.523438 562.582031 683.449219 558.71875 C 680.4375 547.898438 679.597656 536.835938 679.980469 525.667969 "/>
<path style=" stroke:none;fill-rule:evenodd;fill:rgb(17.999268%,18.798828%,42.698669%);fill-opacity:1;" d="M 651.660156 36.183594 C 654.507813 35.765625 656.050781 33.855469 656.039063 31.570313 C 656.03125 29.257813 654.390625 27.144531 651.703125 26.929688 C 647.15625 26.570313 642.558594 26.308594 637.9375 27.15625 C 637.574219 30.207031 637.585938 32.976563 637.960938 36.257813 C 642.804688 36.605469 647.257813 36.824219 651.660156 36.183594 M 654.84375 42.851563 C 661.53125 47.785156 664.621094 54.703125 669.742188 61.648438 C 665.683594 61.648438 662.640625 61.691406 659.601563 61.628906 C 658.066406 61.597656 657.386719 60.316406 656.609375 59.246094 C 653.976563 55.617188 651.320313 51.996094 648.726563 48.339844 C 646.191406 44.769531 643.011719 42.820313 637.839844 44.183594 L 637.839844 61.222656 C 634.484375 61.9375 631.753906 61.789063 628.636719 61.398438 L 628.636719 19.933594 C 633.214844 19.074219 637.683594 19.5625 642.117188 19.535156 C 647.257813 19.503906 652.4375 19.042969 657.503906 20.40625 C 665.269531 22.5 668.414063 31.648438 663.515625 37.886719 C 662.46875 39.21875 661.183594 40.246094 659.621094 40.90625 C 658.265625 41.484375 656.890625 42.019531 654.84375 42.851563 "/>
<path style=" stroke:none;fill-rule:evenodd;fill:rgb(17.999268%,18.798828%,42.698669%);fill-opacity:1;" d="M 355.75 31.964844 C 355.835938 33.390625 355.289063 34.957031 356.605469 36.324219 C 360.785156 36.582031 365.082031 36.800781 369.335938 36.234375 C 372.476563 35.816406 374.171875 33.832031 374.078125 31.417969 C 373.984375 28.953125 372.109375 26.964844 369.121094 26.820313 C 364.867188 26.613281 360.597656 26.765625 355.730469 26.765625 C 355.730469 29.007813 355.664063 30.488281 355.75 31.964844 M 355.8125 44.136719 L 355.8125 61.042969 C 352.65625 62.113281 349.910156 61.664063 347.222656 61.484375 C 346.113281 57.839844 345.796875 26.742188 346.753906 20.242188 C 347.851563 19.207031 349.25 19.480469 350.53125 19.527344 C 358.15625 19.796875 365.820313 18.785156 373.414063 20.132813 C 379.816406 21.269531 383.1875 24.4375 383.730469 29.796875 C 384.320313 35.613281 381.78125 39.328125 375.5 41.785156 C 374.734375 42.082031 373.871094 42.167969 373.3125 43.136719 C 379.488281 47.867188 382.773438 54.769531 387.789063 61.683594 C 383.882813 61.683594 381.089844 61.636719 378.296875 61.699219 C 376.527344 61.738281 375.625 60.625 374.730469 59.382813 C 371.910156 55.472656 369.074219 51.578125 366.242188 47.675781 C 363.726563 44.214844 360.425781 43.007813 355.8125 44.136719 "/>
<path style=" stroke:none;fill-rule:evenodd;fill:rgb(17.999268%,18.798828%,42.698669%);fill-opacity:1;" d="M 149.507813 34.816406 C 148.359375 29.578125 144.308594 26.128906 139.003906 25.726563 C 133.1875 25.28125 128.390625 27.828125 126.457031 32.796875 C 124.386719 38.113281 124.339844 43.566406 126.765625 48.808594 C 128.964844 53.554688 132.992188 55.605469 138.082031 55.457031 C 143.199219 55.308594 146.941406 52.90625 148.914063 48.066406 C 149.867188 45.726563 150.097656 43.234375 150.351563 40.332031 C 150.117188 38.753906 149.933594 36.757813 149.507813 34.816406 M 115.421875 40.3125 C 115.535156 26.683594 124.039063 18.394531 137.789063 18.503906 C 151.664063 18.613281 160.039063 27.207031 159.882813 41.179688 C 159.734375 54.652344 151.035156 62.976563 137.199219 62.679688 C 122.253906 62.363281 114.902344 52.691406 115.421875 40.3125 "/>
<path style=" stroke:none;fill-rule:evenodd;fill:rgb(17.999268%,18.798828%,42.698669%);fill-opacity:1;" d="M 726.960938 54.429688 C 730.59375 54.429688 733.90625 54.644531 737.183594 54.382813 C 742.027344 53.992188 744.597656 51.429688 745.433594 46.507813 C 746.046875 42.886719 746.152344 39.246094 745.554688 35.585938 C 744.664063 30.183594 741.785156 27.261719 736.316406 26.8125 C 733.359375 26.570313 730.367188 26.769531 726.960938 26.769531 Z M 717.5 61.5625 L 717.5 19.679688 C 726.472656 19.65625 735.230469 18.503906 743.851563 20.710938 C 748.253906 21.839844 751.34375 24.933594 753.230469 29.0625 C 756.34375 35.871094 756.570313 42.902344 754.238281 49.949219 C 751.8125 57.269531 746.226563 60.949219 738.878906 61.457031 C 731.964844 61.9375 724.992188 61.5625 717.5 61.5625 "/>
<path style=" stroke:none;fill-rule:evenodd;fill:rgb(17.999268%,18.798828%,42.698669%);fill-opacity:1;" d="M 196.6875 26.738281 C 193.234375 26.863281 191.433594 29.109375 191.511719 33.191406 C 191.585938 37.128906 193.925781 39.539063 197.605469 39.464844 C 200.972656 39.398438 203.371094 36.808594 203.335938 33.289063 C 203.296875 29.574219 200.285156 26.605469 196.6875 26.738281 M 183.828125 51.742188 C 186.4375 51.339844 188.855469 50.964844 191.644531 50.53125 C 193.035156 53.351563 194.527344 56.402344 198.550781 55.273438 C 201.839844 54.347656 203.472656 50.769531 203.425781 44.816406 C 202.117188 44.257813 201.328125 45.46875 200.316406 45.820313 C 193.214844 48.273438 185.640625 44.78125 183.296875 37.871094 C 180.808594 30.535156 184.476563 22.863281 191.613281 20.476563 C 201.585938 17.144531 210.78125 22.445313 212.648438 32.730469 C 213.640625 38.175781 213.746094 43.660156 212.628906 49.125 C 210.53125 59.359375 201.042969 65.140625 191.65625 61.898438 C 186.953125 60.273438 184.414063 56.976563 183.828125 51.742188 "/>
<path style=" stroke:none;fill-rule:evenodd;fill:rgb(17.999268%,18.798828%,42.698669%);fill-opacity:1;" d="M 238.796875 30.742188 C 238.050781 28.570313 236.867188 26.789063 234.304688 26.773438 C 231.535156 26.753906 230.074219 28.511719 229.558594 31.007813 C 228.203125 37.566406 228.210938 44.1875 229.417969 50.742188 C 230.023438 54.03125 231.945313 55.539063 234.320313 55.445313 C 236.652344 55.351563 238.507813 53.695313 239.085938 50.492188 C 239.609375 47.574219 239.628906 44.566406 239.808594 42.355469 C 239.503906 37.964844 240.007813 34.277344 238.796875 30.742188 M 248.980469 42.367188 C 249.039063 45.621094 248.84375 49.765625 247.300781 53.734375 C 244.886719 59.929688 239.945313 63.085938 233.242188 62.691406 C 227.023438 62.328125 222.160156 58.550781 220.609375 52.414063 C 218.746094 45.035156 218.691406 37.546875 220.601563 30.171875 C 222.429688 23.109375 227.371094 19.453125 234.40625 19.507813 C 241.144531 19.554688 245.746094 23.21875 247.828125 30.050781 C 248.964844 33.785156 248.972656 37.601563 248.980469 42.367188 "/>
<path style=" stroke:none;fill-rule:evenodd;fill:rgb(17.999268%,18.798828%,42.698669%);fill-opacity:1;" d="M 274.910156 31.070313 C 274.171875 28.707031 272.914063 26.753906 270.132813 26.78125 C 267.355469 26.8125 266.015625 28.699219 265.507813 31.167969 C 264.191406 37.5625 264.285156 44.023438 265.316406 50.425781 C 265.863281 53.796875 267.644531 55.351563 269.976563 55.445313 C 272.449219 55.546875 274.566406 53.71875 275.128906 50.347656 C 275.644531 47.261719 275.640625 44.085938 275.824219 41.554688 C 275.492188 37.644531 275.921875 34.296875 274.910156 31.070313 M 285.078125 41.347656 C 285.019531 45.367188 284.886719 49.355469 283.496094 53.1875 C 281.109375 59.769531 276.144531 63.097656 269.3125 62.691406 C 262.839844 62.300781 258.070313 58.46875 256.511719 52.003906 C 254.765625 44.777344 254.726563 37.457031 256.578125 30.25 C 258.394531 23.160156 263.335938 19.457031 270.320313 19.507813 C 277.085938 19.550781 281.785156 23.195313 283.777344 29.980469 C 284.152344 31.257813 284.515625 32.558594 284.640625 33.875 C 284.878906 36.355469 284.941406 38.855469 285.078125 41.347656 "/>
<path style=" stroke:none;fill-rule:evenodd;fill:rgb(17.999268%,18.399048%,41.999817%);fill-opacity:1;" d="M 784.597656 506.882813 C 781.300781 518.210938 778 529.535156 774.574219 541.296875 C 778.367188 541.410156 781.605469 541.65625 785.074219 541.132813 L 785.074219 507.074219 Z M 789.652344 486.96875 L 789.652344 540.011719 C 790.9375 542.054688 792.863281 540.929688 794.332031 542.292969 C 794.84375 545.21875 794.648438 548.488281 794.425781 551.53125 C 793.285156 553.25 791.351563 552.101563 789.742188 553.707031 L 789.742188 572.628906 C 788.226563 573.777344 787.148438 573.714844 785.65625 573.011719 C 784.796875 566.652344 785.769531 560.007813 785.089844 553.203125 C 780.402344 551.835938 775.515625 553.320313 770.640625 552.238281 C 770.0625 547.636719 769.683594 543.171875 770.933594 538.820313 C 775.632813 522.519531 780.464844 506.253906 785.226563 489.96875 C 785.800781 488.015625 786.066406 485.8125 789.652344 486.96875 "/>
<path style=" stroke:none;fill-rule:evenodd;fill:rgb(17.999268%,18.798828%,42.698669%);fill-opacity:1;" d="M 389.960938 595.15625 C 391.347656 592.988281 391.367188 590.21875 389.6875 588.128906 C 387.011719 584.804688 383.402344 585.300781 379.542969 586.253906 C 379.488281 590.1875 379.152344 593.949219 379.816406 598.113281 C 383.984375 598.730469 387.675781 598.730469 389.960938 595.15625 M 386.089844 615.328125 C 389.746094 614.953125 392.070313 612.527344 392.222656 609.234375 C 392.382813 605.652344 390.226563 602.597656 386.738281 601.890625 C 384.488281 601.433594 382.160156 601.308594 379.796875 602.15625 C 379.1875 606.414063 379.363281 610.527344 379.671875 614.847656 C 382.125 615.722656 384.140625 615.523438 386.089844 615.328125 M 389.800781 599.648438 C 392.832031 601.34375 394.9375 603.121094 395.640625 606.136719 C 397.226563 612.929688 393.589844 617.988281 386.402344 618.554688 C 383.097656 618.820313 379.757813 618.601563 375.691406 618.601563 C 375.347656 606.6875 375.574219 594.976563 375.554688 583.050781 C 379.695313 581.984375 383.699219 582.007813 387.53125 582.785156 C 394.566406 584.21875 396.929688 592.179688 392.144531 597.570313 C 391.605469 598.175781 390.925781 598.65625 389.800781 599.648438 "/>
<path style=" stroke:none;fill-rule:evenodd;fill:rgb(17.999268%,18.798828%,42.698669%);fill-opacity:1;" d="M 35.644531 607.914063 C 37.324219 603.234375 37.355469 598.378906 36.097656 593.644531 C 34.472656 587.550781 29.679688 584.976563 22.769531 586.308594 L 22.769531 614.851563 C 29.496094 615.855469 33.589844 613.632813 35.644531 607.914063 M 18.796875 618.160156 L 18.796875 582.917969 C 23.417969 581.933594 27.855469 582.101563 32.113281 583.628906 C 36.964844 585.367188 39.3125 589.390625 40.316406 594.179688 C 41.210938 598.457031 41.214844 602.792969 40.097656 607.050781 C 38.082031 614.722656 33.214844 618.535156 25.324219 618.613281 C 23.34375 618.632813 21.335938 618.875 18.796875 618.160156 "/>
<path style=" stroke:none;fill-rule:evenodd;fill:rgb(17.999268%,18.798828%,42.698669%);fill-opacity:1;" d="M 758.804688 600.933594 C 756.621094 604.703125 757.246094 611.285156 760.058594 613.917969 C 762.125 615.855469 764.539063 615.730469 767.011719 614.964844 C 769.429688 614.214844 769.519531 612.257813 769.484375 610.175781 C 769.425781 606.394531 769.46875 602.613281 769.46875 598.714844 C 763.46875 596.949219 760.726563 597.613281 758.804688 600.933594 M 770.078125 582.863281 C 771.386719 582.367188 772.515625 582.40625 772.734375 584 C 772.9375 585.476563 772.878906 586.984375 772.910156 588.480469 C 773.117188 598.277344 772.421875 608.085938 773.4375 617.828125 C 771.546875 619.75 770.539063 617.371094 769.171875 617.027344 C 768.199219 617.371094 767.273438 617.742188 766.324219 618.03125 C 761.617188 619.464844 757.535156 617.925781 755.472656 613.566406 C 753.230469 608.828125 753.007813 603.90625 755.417969 599.113281 C 757.757813 594.460938 761.363281 592.792969 766.546875 593.824219 C 767.347656 593.984375 768.09375 594.4375 769.027344 593.988281 C 769.871094 592.167969 769.296875 590.144531 769.476563 588.183594 C 769.640625 586.402344 769.023438 584.523438 770.078125 582.863281 "/>
<path style=" stroke:none;fill-rule:evenodd;fill:rgb(17.999268%,18.798828%,42.698669%);fill-opacity:1;" d="M 262.367188 607.425781 C 260.484375 608.683594 259.902344 610.570313 260.75 612.652344 C 261.523438 614.542969 263.328125 614.527344 265.007813 614.347656 C 269.566406 613.847656 270.753906 611.988281 270.183594 606.027344 C 267.128906 605.191406 264.636719 605.910156 262.367188 607.425781 M 270.222656 603.175781 C 270.621094 600.792969 271.035156 598.574219 268.660156 597.285156 C 265.324219 595.476563 262.644531 597.632813 260.066406 599.09375 C 258.519531 599.03125 258.523438 597.871094 258.082031 597.066406 C 259.839844 594.871094 262.226563 594.027344 264.675781 593.597656 C 270.398438 592.578125 274.367188 596.191406 273.929688 601.089844 C 273.648438 604.226563 273.9375 607.410156 273.871094 610.570313 C 273.8125 613.257813 274.152344 615.59375 277.671875 615.796875 C 274.667969 619.558594 274.128906 619.542969 270.207031 615.839844 C 268.921875 616.492188 267.644531 617.257813 266.285156 617.820313 C 262.316406 619.457031 258.769531 618.464844 257.167969 615.351563 C 255.542969 612.191406 256.804688 607.816406 260.097656 605.730469 C 262.375 604.28125 264.949219 603.59375 267.652344 603.425781 C 268.453125 603.371094 269.253906 603.273438 270.222656 603.175781 "/>
<path style=" stroke:none;fill-rule:evenodd;fill:rgb(17.999268%,18.798828%,42.698669%);fill-opacity:1;" d="M 666.414063 596.671875 C 663.207031 596.609375 661.535156 598.53125 660.976563 603.089844 C 664.40625 603.5625 667.8125 603.695313 671.230469 603.039063 C 670.769531 598.378906 669.492188 596.730469 666.414063 596.671875 M 660.636719 607.148438 C 660.761719 610.898438 661.609375 613.761719 664.761719 615.050781 C 668.226563 616.46875 670.734375 614.238281 672.914063 612.175781 C 674.105469 612.253906 674.683594 612.78125 675.035156 613.605469 C 675.003906 613.914063 675.078125 614.304688 674.921875 614.515625 C 672.230469 618.035156 668.632813 619.367188 664.386719 618.316406 C 660 617.226563 658.074219 613.921875 657.195313 609.691406 C 656.351563 605.640625 656.582031 601.777344 658.519531 598.101563 C 660.351563 594.632813 663.378906 593.21875 667.175781 593.480469 C 670.824219 593.730469 673.667969 596.117188 674.550781 599.851563 C 675.027344 601.871094 675.785156 604.023438 674.535156 606.304688 C 670.089844 607.273438 665.394531 605.945313 660.636719 607.148438 "/>
<path style=" stroke:none;fill-rule:evenodd;fill:rgb(17.999268%,18.798828%,42.698669%);fill-opacity:1;" d="M 710.757813 607.867188 C 709.390625 609.003906 708.816406 610.558594 709.472656 612.351563 C 710.191406 614.308594 711.847656 614.554688 713.570313 614.363281 C 715.75 614.117188 717.769531 613.410156 719.234375 611.636719 C 719.523438 609.792969 719.722656 608 718.984375 605.898438 C 715.738281 605.296875 713.046875 605.957031 710.757813 607.867188 M 719.175781 603.273438 C 719.511719 600.9375 719.984375 598.859375 717.984375 597.53125 C 714.527344 595.242188 711.710938 597.65625 708.9375 599.09375 C 707.4375 599 707.453125 597.859375 707.046875 597.050781 C 708.808594 594.835938 711.234375 594.074219 713.660156 593.613281 C 719.046875 592.582031 723.292969 595.945313 722.878906 601.117188 C 722.601563 604.585938 722.746094 608.097656 722.871094 611.589844 C 722.976563 614.601563 723.078125 614.597656 726.40625 615.832031 C 724.09375 619.554688 723.046875 619.578125 719.519531 615.886719 C 717.847656 615.9375 716.695313 617.335938 715.175781 617.890625 C 711.179688 619.363281 707.640625 618.414063 706.074219 615.292969 C 704.492188 612.136719 705.796875 607.753906 709.089844 605.695313 C 711.984375 603.886719 715.269531 603.359375 719.175781 603.273438 "/>
<path style=" stroke:none;fill-rule:evenodd;fill:rgb(17.999268%,18.798828%,42.698669%);fill-opacity:1;" d="M 605.015625 596.664063 C 601.789063 596.824219 600.265625 598.84375 600.195313 603.230469 L 610.289063 603.230469 C 609.796875 598.253906 608.289063 596.503906 605.015625 596.664063 M 612.011719 612.089844 C 613.410156 612.5 613.964844 613.050781 614.171875 614.183594 C 611.582031 617.882813 607.9375 619.382813 603.46875 618.339844 C 599.289063 617.363281 597.234375 614.28125 596.3125 610.222656 C 595.441406 606.375 595.457031 602.632813 597.058594 598.980469 C 598.816406 594.976563 602.625 592.820313 606.664063 593.503906 C 610.679688 594.179688 613.238281 596.953125 613.851563 601.347656 C 614.078125 602.988281 614.339844 604.652344 613.132813 606.671875 L 599.949219 606.671875 C 599.394531 610.382813 600.28125 613.125 603.1875 614.734375 C 606.824219 616.753906 609.476563 614.394531 612.011719 612.089844 "/>
<path style=" stroke:none;fill-rule:evenodd;fill:rgb(17.999268%,18.798828%,42.698669%);fill-opacity:1;" d="M 532.015625 596.664063 C 528.792969 596.828125 527.261719 598.855469 527.214844 603.230469 L 537.304688 603.230469 C 536.738281 598.203125 535.273438 596.503906 532.015625 596.664063 M 540.441406 606.308594 C 535.847656 607.15625 531.324219 606.066406 526.867188 607.039063 C 526.492188 610.4375 527.347656 613.234375 530.304688 614.800781 C 533.945313 616.730469 536.546875 614.199219 539.007813 612.183594 C 540.117188 612.25 540.695313 612.78125 541.050781 613.605469 C 541.015625 613.917969 541.089844 614.308594 540.929688 614.519531 C 538.234375 618.054688 534.625 619.371094 530.375 618.304688 C 525.984375 617.203125 524.074219 613.875 523.199219 609.644531 C 522.433594 605.929688 522.648438 602.382813 524.152344 598.925781 C 525.839844 595.035156 529.292969 593.003906 533.265625 593.476563 C 537.535156 593.980469 540.285156 596.851563 540.84375 601.417969 C 541.027344 602.902344 541.132813 604.394531 540.441406 606.308594 "/>
<path style=" stroke:none;fill-rule:evenodd;fill:rgb(17.999268%,18.798828%,42.698669%);fill-opacity:1;" d="M 158.355469 596.664063 C 155.074219 596.648438 153.492188 598.5625 153.128906 603.136719 C 156.414063 603.648438 159.695313 603.449219 163.371094 603.285156 C 162.785156 598.285156 161.464844 596.675781 158.355469 596.664063 M 166.351563 606.625 L 152.992188 606.625 C 152.414063 610.195313 153.25 612.910156 156.03125 614.613281 C 159.800781 616.921875 162.542969 614.214844 165.0625 612.179688 C 166.273438 612.316406 166.828125 612.871094 167.121094 613.722656 C 167.0625 614.027344 167.097656 614.410156 166.925781 614.625 C 164.148438 618.050781 160.550781 619.386719 156.300781 618.269531 C 151.902344 617.117188 150.066406 613.71875 149.191406 609.527344 C 148.414063 605.8125 148.726563 602.261719 150.25 598.820313 C 151.925781 595.042969 155.515625 592.988281 159.441406 593.472656 C 163.4375 593.960938 166.210938 596.773438 166.839844 601.046875 C 167.082031 602.679688 167.242188 604.335938 166.351563 606.625 "/>
<path style=" stroke:none;fill-rule:evenodd;fill:rgb(17.999268%,18.798828%,42.698669%);fill-opacity:1;" d="M 309.894531 611.71875 C 311.308594 613.890625 312.984375 615.628906 315.878906 615.386719 C 318.535156 615.167969 319.996094 613.398438 320.984375 611.21875 C 322.734375 607.371094 322.695313 603.46875 320.601563 599.777344 C 318.359375 595.816406 313.5625 595.507813 310.664063 599.007813 C 308.984375 601.042969 308.554688 603.441406 308.699219 606.171875 C 308.59375 608.003906 308.75 609.964844 309.894531 611.71875 M 325.726563 605.617188 C 325.773438 609.328125 324.847656 612.460938 322.671875 615.140625 C 318.488281 620.296875 310.3125 619.773438 307.074219 614.003906 C 304.507813 609.429688 304.195313 604.53125 306.335938 599.65625 C 308.230469 595.335938 311.785156 593.128906 316.128906 593.460938 C 320.636719 593.804688 323.328125 596.464844 324.804688 600.535156 C 325.429688 602.261719 325.792969 604.046875 325.726563 605.617188 "/>
<g clip-path="url(#clip1)" clip-rule="nonzero">
<path style="fill:none;stroke-width:60;stroke-linecap:butt;stroke-linejoin:miter;stroke:rgb(17.999268%,18.798828%,42.698669%);stroke-opacity:1;stroke-miterlimit:10;" d="M 30 30.001562 L 8112.8125 30.001562 L 8112.8125 6303.439062 L 30 6303.439062 Z M 30 30.001562 " transform="matrix(0.1,0,0,-0.1,0,633.34)"/>
</g>
<path style=" stroke:none;fill-rule:nonzero;fill:rgb(13.299561%,40.39917%,68.998718%);fill-opacity:1;" d="M 32.808594 376.121094 L 286.960938 376.121094 L 286.960938 94.121094 L 32.808594 94.121094 Z M 32.808594 376.121094 "/>
<path style=" stroke:none;fill-rule:nonzero;fill:rgb(43.099976%,65.899658%,28.599548%);fill-opacity:1;" d="M 32.808594 517.121094 L 286.960938 517.121094 L 286.960938 393.121094 L 32.808594 393.121094 Z M 32.808594 517.121094 "/>
<path style=" stroke:none;fill-rule:nonzero;fill:rgb(100%,100%,100%);fill-opacity:1;" d="M 178 467.480469 L 178 444.296875 L 172.78125 444.296875 L 172.78125 439.085938 L 183.066406 439.085938 L 183.066406 474 L 174.664063 474 L 152.785156 432.707031 L 119.894531 432.707031 L 119.894531 426.910156 L 155.394531 426.910156 "/>
<path style=" stroke:none;fill-rule:nonzero;fill:rgb(100%,100%,100%);fill-opacity:1;" d="M 201.179688 432.707031 L 172.785156 432.707031 L 172.785156 426.910156 L 201.179688 426.910156 Z M 201.179688 432.707031 "/>
<path style=" stroke:none;fill-rule:nonzero;fill:rgb(100%,100%,100%);fill-opacity:1;" d="M 205.675781 432.710938 L 238.570313 432.710938 L 238.570313 426.914063 L 205.675781 426.914063 Z M 205.675781 432.710938 "/>
<path style=" stroke:none;fill-rule:nonzero;fill:rgb(100%,100%,100%);fill-opacity:1;" d="M 129.601563 439.808594 L 129.601563 474.003906 L 119.167969 474.003906 L 119.167969 469.367188 L 124.386719 469.367188 L 124.386719 444.878906 L 119.894531 444.878906 L 119.894531 439.085938 L 129.601563 439.085938 "/>
<path style=" stroke:none;fill-rule:nonzero;fill:rgb(100%,100%,100%);fill-opacity:1;" d="M 169.59375 480.957031 L 191.472656 480.957031 L 191.472656 439.085938 L 201.179688 439.085938 L 201.179688 444.296875 L 196.691406 444.296875 L 196.691406 486.175781 L 165.683594 486.175781 L 143.800781 446.90625 L 143.800781 469.363281 L 148.875 469.363281 L 148.875 474 L 137.863281 474 L 137.863281 439.804688 C 138.585938 439.804688 138.585938 439.804688 138.585938 439.082031 L 146.269531 439.082031 "/>
<path style=" stroke:none;fill-rule:nonzero;fill:rgb(100%,100%,100%);fill-opacity:1;" d="M 257.261719 486.175781 L 229.585938 486.175781 L 211.472656 444.296875 L 205.675781 444.296875 L 205.675781 439.085938 L 215.382813 439.085938 L 233.351563 480.957031 L 252.765625 480.957031 L 270.15625 439.085938 L 279.863281 439.085938 L 279.863281 444.296875 L 274.644531 444.296875 "/>
<path style=" stroke:none;fill-rule:nonzero;fill:rgb(100%,100%,100%);fill-opacity:1;" d="M 246.96875 474 L 239.871094 474 L 224.945313 439.085938 L 238.570313 439.085938 L 238.570313 444.296875 L 232.773438 444.296875 L 243.058594 467.480469 L 253.34375 444.296875 L 246.96875 444.296875 L 246.96875 439.085938 L 261.171875 439.085938 "/>
<path style=" stroke:none;fill-rule:nonzero;fill:rgb(100%,100%,100%);fill-opacity:1;" d="M 52.804688 475.160156 L 42.515625 475.160156 L 42.515625 470.089844 L 47.589844 470.089844 L 47.589844 445.601563 L 42.515625 445.601563 L 42.515625 440.386719 L 52.804688 440.386719 "/>
<path style=" stroke:none;fill-rule:nonzero;fill:rgb(100%,100%,100%);fill-opacity:1;" d="M 119.167969 486.175781 L 148.875 486.175781 L 148.875 480.957031 L 119.167969 480.957031 Z M 119.167969 486.175781 "/>
<path style=" stroke:none;fill-rule:nonzero;fill:rgb(100%,100%,100%);fill-opacity:1;" d="M 84.972656 481.683594 C 97.871094 481.683594 108.882813 470.671875 108.882813 457.195313 C 108.882813 443.574219 97.871094 433.285156 84.972656 433.285156 L 85.699219 433.285156 L 42.515625 433.285156 L 42.515625 428.070313 L 85.695313 428.070313 C 101.78125 428.070313 115.402344 440.964844 115.402344 457.195313 C 115.402344 474 101.78125 486.898438 85.695313 486.898438 L 85.695313 487.476563 L 42.515625 487.476563 L 42.515625 481.683594 L 84.972656 481.683594 "/>
<path style=" stroke:none;fill-rule:nonzero;fill:rgb(100%,100%,100%);fill-opacity:1;" d="M 83.816406 439.816406 L 82.511719 440.402344 L 61.539063 440.402344 L 61.539063 475.5 L 81.785156 475.5 L 83.816406 474.75 C 92.796875 474.75 100.476563 466.992188 100.476563 457.285156 C 100.476563 447.574219 92.796875 439.816406 83.816406 439.816406 M 83.089844 468.917969 L 65.925781 468.917969 L 65.925781 445.886719 L 83.089844 445.886719 C 89.609375 445.886719 95.40625 450.589844 95.40625 457.113281 C 95.40625 464.214844 89.609375 468.917969 83.089844 468.917969 "/>
<path style=" stroke:none;fill-rule:nonzero;fill:rgb(100%,100%,100%);fill-opacity:1;" d="M 246.96875 432.710938 L 279.863281 432.710938 L 279.863281 426.914063 L 246.96875 426.914063 Z M 246.96875 432.710938 "/>
<path style=" stroke:none;fill-rule:nonzero;fill:rgb(100%,100%,100%);fill-opacity:1;" d="M 267 291.679688 L 262.503906 291.679688 L 231.496094 201.746094 L 239.453125 201.746094 L 239.453125 183.101563 L 227.585938 183.101563 C 224.472656 179.808594 219.96875 176.835938 214.492188 175.96875 C 224.933594 174.195313 232.796875 164.957031 232.796875 154.527344 C 232.796875 142.355469 223.089844 132.710938 210.917969 132.710938 C 199.328125 132.710938 188.894531 142.453125 188.894531 154.628906 C 188.894531 165.078125 197.375 174.214844 207.539063 175.960938 C 202.410156 176.839844 197.910156 179.808594 194.6875 183.101563 L 182.421875 183.101563 L 182.421875 201.746094 L 190.929688 201.746094 L 159.914063 291.679688 L 156.003906 291.679688 C 156.003906 313.617188 173.390625 331.09375 195.414063 331.09375 C 217.296875 331.09375 235.40625 313.617188 235.40625 291.679688 L 231.496094 291.679688 L 199.328125 202.304688 C 199.328125 195.78125 204.398438 190.652344 210.917969 190.652344 C 217.296875 190.652344 222.511719 195.914063 222.511719 202.433594 L 221.785156 203.613281 L 212.804688 230.71875 L 218.019531 244.347656 L 227.003906 220.269531 L 251.492188 291.679688 L 240.480469 291.679688 C 239.902344 307.035156 230.914063 322.390625 216.71875 330.070313 L 217.296875 330.070313 C 238.597656 339.941406 267.574219 314.714844 267.574219 291.679688 Z M 220.484375 291.679688 L 170.929688 291.679688 L 195.417969 220.101563 Z M 201.792969 154.660156 C 201.792969 149.585938 205.703125 144.953125 210.921875 144.953125 C 216.71875 144.953125 220.484375 149.589844 220.484375 154.660156 C 220.484375 159.875 216.71875 163.644531 210.921875 163.644531 C 205.703125 163.644531 201.792969 159.875 201.792969 154.660156 "/>
<path style=" stroke:none;fill-rule:nonzero;fill:rgb(100%,100%,100%);fill-opacity:1;" d="M 203.066406 254.335938 L 208.285156 268.390625 L 202.488281 286.503906 L 191.472656 287.230469 Z M 203.066406 254.335938 "/>
<path style=" stroke:none;fill-rule:nonzero;fill:rgb(100%,100%,100%);fill-opacity:1;" d="M 147.601563 291.679688 L 125.390625 262.464844 L 125.390625 292.746094 C 125.390625 292.746094 124.292969 311.441406 106.746094 311.441406 L 106.746094 201.746094 L 125.390625 201.746094 L 125.390625 183.101563 L 106.746094 183.101563 L 106.746094 174.835938 C 115.519531 171.453125 120.363281 163.429688 120.363281 154.660156 C 120.363281 142.488281 110.871094 132.777344 98.554688 132.777344 C 86.960938 132.777344 76.929688 142.488281 76.929688 154.660156 C 76.929688 163.585938 82.617188 171.738281 91.390625 175.015625 L 91.390625 183.101563 L 72.746094 183.101563 L 72.746094 201.746094 L 90.945313 201.746094 L 90.464844 311.4375 C 73.660156 311.4375 72.746094 292.746094 72.746094 292.746094 L 72.746094 262.464844 L 49.894531 291.269531 L 48.921875 291.679688 L 58.632813 291.679688 C 58.632813 291.679688 57.328125 311.847656 70.949219 319.671875 C 83.121094 326.046875 96.738281 334.539063 98.621094 336.570313 C 101.230469 334.539063 114.707031 326.007813 127.023438 319.628906 C 140.5 311.804688 139.195313 291.679688 139.195313 291.679688 Z M 98.621094 163.644531 C 93.40625 163.644531 89.640625 159.875 89.640625 154.660156 C 89.640625 149.585938 93.40625 144.953125 98.621094 144.953125 C 103.839844 144.953125 108.332031 149.589844 108.332031 154.660156 C 108.332031 159.875 103.839844 163.644531 98.621094 163.644531 "/>
<path style=" stroke:none;fill-rule:nonzero;fill:rgb(17.999268%,18.798828%,42.698669%);fill-opacity:1;" d="M 444.832031 613.109375 L 448.226563 613.109375 L 448.226563 616.074219 C 448.226563 617.753906 448.027344 619.003906 447.632813 619.820313 C 447.152344 620.835938 446.347656 621.585938 445.214844 622.078125 L 444.550781 620.367188 C 445.21875 620.089844 445.699219 619.71875 445.996094 619.253906 C 446.289063 618.785156 446.449219 618.121094 446.46875 617.253906 L 444.832031 617.253906 "/>
</g>
</svg>
